<svg xmlns="http://www.w3.org/2000/svg" width="1600" height="420" viewBox="0 0 1600 420"><defs><linearGradient id="g" x1="0" y1="0" x2="1" y2="1"><stop offset="0" stop-color="#2e2410"/><stop offset="1" stop-color="#6b5320"/></linearGradient><radialGradient id="glow" cx=".5" cy=".5" r=".5"><stop offset="0" stop-color="#fde68a" stop-opacity=".16"/><stop offset="1" stop-color="#fde68a" stop-opacity="0"/></radialGradient></defs><rect width="1600" height="420" fill="url(#g)"/><circle cx="676" cy="286" r="3.2" fill="#fde68a" fill-opacity="0.23"/><circle cx="923" cy="120" r="1.2" fill="#fde68a" fill-opacity="0.12"/><circle cx="1266" cy="57" r="1.8" fill="#fde68a" fill-opacity="0.07"/><circle cx="838" cy="314" r="2.5" fill="#fde68a" fill-opacity="0.28"/><circle cx="1447" cy="382" r="2.5" fill="#fde68a" fill-opacity="0.11"/><circle cx="873" cy="163" r="2.5" fill="#fde68a" fill-opacity="0.27"/><circle cx="1519" cy="96" r="3.2" fill="#fde68a" fill-opacity="0.25"/><circle cx="511" cy="320" r="1.8" fill="#fde68a" fill-opacity="0.22"/><circle cx="1208" cy="249" r="1.2" fill="#fde68a" fill-opacity="0.17"/><circle cx="276" cy="271" r="1.2" fill="#fde68a" fill-opacity="0.24"/><circle cx="1049" cy="95" r="3.2" fill="#fde68a" fill-opacity="0.25"/><circle cx="425" cy="211" r="2.5" fill="#fde68a" fill-opacity="0.11"/><circle cx="1134" cy="378" r="1.8" fill="#fde68a" fill-opacity="0.14"/><circle cx="959" cy="141" r="1.2" fill="#fde68a" fill-opacity="0.16"/><circle cx="1484" cy="395" r="1.8" fill="#fde68a" fill-opacity="0.09"/><circle cx="27" cy="351" r="1.8" fill="#fde68a" fill-opacity="0.23"/><circle cx="378" cy="265" r="3.2" fill="#fde68a" fill-opacity="0.20"/><circle cx="610" cy="94" r="1.2" fill="#fde68a" fill-opacity="0.18"/><circle cx="1559" cy="124" r="3.2" fill="#fde68a" fill-opacity="0.24"/><circle cx="852" cy="269" r="2.5" fill="#fde68a" fill-opacity="0.19"/><circle cx="1195" cy="417" r="1.2" fill="#fde68a" fill-opacity="0.15"/><circle cx="1002" cy="401" r="2.5" fill="#fde68a" fill-opacity="0.27"/><circle cx="644" cy="35" r="1.2" fill="#fde68a" fill-opacity="0.10"/><circle cx="618" cy="293" r="3.2" fill="#fde68a" fill-opacity="0.14"/><circle cx="1190" cy="36" r="1.8" fill="#fde68a" fill-opacity="0.14"/><circle cx="1096" cy="350" r="1.2" fill="#fde68a" fill-opacity="0.24"/><circle cx="70" cy="48" r="3.2" fill="#fde68a" fill-opacity="0.22"/><circle cx="201" cy="154" r="2.5" fill="#fde68a" fill-opacity="0.08"/><circle cx="326" cy="206" r="1.8" fill="#fde68a" fill-opacity="0.18"/><circle cx="613" cy="148" r="1.2" fill="#fde68a" fill-opacity="0.12"/><circle cx="140" cy="300" r="1.2" fill="#fde68a" fill-opacity="0.11"/><circle cx="1048" cy="350" r="1.2" fill="#fde68a" fill-opacity="0.10"/><circle cx="942" cy="245" r="2.5" fill="#fde68a" fill-opacity="0.19"/><circle cx="573" cy="110" r="2.5" fill="#fde68a" fill-opacity="0.21"/><circle cx="1600" cy="182" r="2.5" fill="#fde68a" fill-opacity="0.22"/><circle cx="797" cy="180" r="1.2" fill="#fde68a" fill-opacity="0.08"/><circle cx="1232" cy="74" r="1.8" fill="#fde68a" fill-opacity="0.12"/><circle cx="909" cy="328" r="1.2" fill="#fde68a" fill-opacity="0.22"/><circle cx="459" cy="64" r="2.5" fill="#fde68a" fill-opacity="0.15"/><circle cx="1351" cy="217" r="1.2" fill="#fde68a" fill-opacity="0.07"/><circle cx="1356" cy="196" r="1.2" fill="#fde68a" fill-opacity="0.16"/><circle cx="1329" cy="295" r="1.2" fill="#fde68a" fill-opacity="0.17"/><circle cx="917" cy="400" r="2.5" fill="#fde68a" fill-opacity="0.07"/><circle cx="1006" cy="141" r="1.2" fill="#fde68a" fill-opacity="0.10"/><circle cx="1244" cy="305" r="2.5" fill="#fde68a" fill-opacity="0.22"/><circle cx="1217" cy="327" r="3.2" fill="#fde68a" fill-opacity="0.14"/><circle cx="271" cy="355" r="1.2" fill="#fde68a" fill-opacity="0.16"/><circle cx="85" cy="277" r="1.2" fill="#fde68a" fill-opacity="0.11"/><circle cx="1058" cy="33" r="3.2" fill="#fde68a" fill-opacity="0.20"/><circle cx="872" cy="316" r="2.5" fill="#fde68a" fill-opacity="0.10"/><circle cx="1339" cy="381" r="3.2" fill="#fde68a" fill-opacity="0.16"/><circle cx="565" cy="20" r="2.5" fill="#fde68a" fill-opacity="0.13"/><circle cx="1024" cy="188" r="3.2" fill="#fde68a" fill-opacity="0.16"/><circle cx="1109" cy="317" r="1.2" fill="#fde68a" fill-opacity="0.27"/><circle cx="1295" cy="217" r="1.2" fill="#fde68a" fill-opacity="0.12"/><circle cx="1081" cy="18" r="2.5" fill="#fde68a" fill-opacity="0.13"/><circle cx="1319" cy="306" r="1.2" fill="#fde68a" fill-opacity="0.21"/><circle cx="1587" cy="241" r="3.2" fill="#fde68a" fill-opacity="0.16"/><circle cx="1504" cy="153" r="3.2" fill="#fde68a" fill-opacity="0.09"/><circle cx="372" cy="269" r="1.2" fill="#fde68a" fill-opacity="0.21"/><circle cx="762" cy="219" r="2.5" fill="#fde68a" fill-opacity="0.26"/><circle cx="1228" cy="392" r="1.8" fill="#fde68a" fill-opacity="0.18"/><circle cx="336" cy="132" r="1.8" fill="#fde68a" fill-opacity="0.08"/><circle cx="1093" cy="302" r="2.5" fill="#fde68a" fill-opacity="0.21"/><circle cx="774" cy="381" r="3.2" fill="#fde68a" fill-opacity="0.11"/><circle cx="578" cy="214" r="3.2" fill="#fde68a" fill-opacity="0.17"/><circle cx="726" cy="215" r="1.8" fill="#fde68a" fill-opacity="0.24"/><circle cx="1459" cy="153" r="3.2" fill="#fde68a" fill-opacity="0.24"/><circle cx="952" cy="60" r="1.8" fill="#fde68a" fill-opacity="0.16"/><circle cx="1563" cy="233" r="2.5" fill="#fde68a" fill-opacity="0.09"/><circle cx="902" cy="181" r="2.5" fill="#fde68a" fill-opacity="0.25"/><circle cx="1210" cy="195" r="3.2" fill="#fde68a" fill-opacity="0.20"/><circle cx="1027" cy="287" r="1.8" fill="#fde68a" fill-opacity="0.15"/><circle cx="136" cy="236" r="2.5" fill="#fde68a" fill-opacity="0.22"/><rect x="18" y="18" width="1564" height="384" rx="6" fill="none" stroke="#fde68a" stroke-opacity=".32" stroke-width="1.6"/><rect x="28" y="28" width="1544" height="364" rx="4" fill="none" stroke="#fde68a" stroke-opacity=".16" stroke-width="1"/><ellipse cx="800" cy="210" rx="420" ry="190" fill="url(#glow)"/><g transform="translate(655 70) scale(1.45)"><circle cx="50" cy="66" r="22" fill="none" stroke="#fde68a" stroke-width="4" stroke-linecap="round" stroke-linejoin="round"/><circle cx="83" cy="66" r="5" fill="none" stroke="#fde68a" stroke-width="2.5" stroke-linecap="round" stroke-linejoin="round"/><circle cx="73" cy="89" r="5" fill="none" stroke="#fde68a" stroke-width="2.5" stroke-linecap="round" stroke-linejoin="round"/><circle cx="50" cy="99" r="5" fill="none" stroke="#fde68a" stroke-width="2.5" stroke-linecap="round" stroke-linejoin="round"/><circle cx="27" cy="89" r="5" fill="none" stroke="#fde68a" stroke-width="2.5" stroke-linecap="round" stroke-linejoin="round"/><circle cx="17" cy="66" r="5" fill="none" stroke="#fde68a" stroke-width="2.5" stroke-linecap="round" stroke-linejoin="round"/><circle cx="27" cy="43" r="5" fill="none" stroke="#fde68a" stroke-width="2.5" stroke-linecap="round" stroke-linejoin="round"/><circle cx="50" cy="33" r="5" fill="none" stroke="#fde68a" stroke-width="2.5" stroke-linecap="round" stroke-linejoin="round"/><circle cx="73" cy="43" r="5" fill="none" stroke="#fde68a" stroke-width="2.5" stroke-linecap="round" stroke-linejoin="round"/><circle cx="50" cy="66" r="5" fill="#fde68a" fill-opacity=".8"/><circle cx="150" cy="66" r="22" fill="none" stroke="#fde68a" stroke-width="4" stroke-linecap="round" stroke-linejoin="round"/><circle cx="183" cy="66" r="5" fill="none" stroke="#fde68a" stroke-width="2.5" stroke-linecap="round" stroke-linejoin="round"/><circle cx="173" cy="89" r="5" fill="none" stroke="#fde68a" stroke-width="2.5" stroke-linecap="round" stroke-linejoin="round"/><circle cx="150" cy="99" r="5" fill="none" stroke="#fde68a" stroke-width="2.5" stroke-linecap="round" stroke-linejoin="round"/><circle cx="127" cy="89" r="5" fill="none" stroke="#fde68a" stroke-width="2.5" stroke-linecap="round" stroke-linejoin="round"/><circle cx="117" cy="66" r="5" fill="none" stroke="#fde68a" stroke-width="2.5" stroke-linecap="round" stroke-linejoin="round"/><circle cx="127" cy="43" r="5" fill="none" stroke="#fde68a" stroke-width="2.5" stroke-linecap="round" stroke-linejoin="round"/><circle cx="150" cy="33" r="5" fill="none" stroke="#fde68a" stroke-width="2.5" stroke-linecap="round" stroke-linejoin="round"/><circle cx="173" cy="43" r="5" fill="none" stroke="#fde68a" stroke-width="2.5" stroke-linecap="round" stroke-linejoin="round"/><circle cx="150" cy="66" r="5" fill="#fde68a" fill-opacity=".8"/><circle cx="100" cy="150" r="22" fill="none" stroke="#fde68a" stroke-width="4" stroke-linecap="round" stroke-linejoin="round"/><circle cx="133" cy="150" r="5" fill="none" stroke="#fde68a" stroke-width="2.5" stroke-linecap="round" stroke-linejoin="round"/><circle cx="123" cy="173" r="5" fill="none" stroke="#fde68a" stroke-width="2.5" stroke-linecap="round" stroke-linejoin="round"/><circle cx="100" cy="183" r="5" fill="none" stroke="#fde68a" stroke-width="2.5" stroke-linecap="round" stroke-linejoin="round"/><circle cx="77" cy="173" r="5" fill="none" stroke="#fde68a" stroke-width="2.5" stroke-linecap="round" stroke-linejoin="round"/><circle cx="67" cy="150" r="5" fill="none" stroke="#fde68a" stroke-width="2.5" stroke-linecap="round" stroke-linejoin="round"/><circle cx="77" cy="127" r="5" fill="none" stroke="#fde68a" stroke-width="2.5" stroke-linecap="round" stroke-linejoin="round"/><circle cx="100" cy="117" r="5" fill="none" stroke="#fde68a" stroke-width="2.5" stroke-linecap="round" stroke-linejoin="round"/><circle cx="123" cy="127" r="5" fill="none" stroke="#fde68a" stroke-width="2.5" stroke-linecap="round" stroke-linejoin="round"/><circle cx="100" cy="150" r="5" fill="#fde68a" fill-opacity=".8"/></g><path d="M570 210 H310" stroke="#fde68a" stroke-opacity=".45" stroke-width="1.6"/><circle cx="298" cy="210" r="4" fill="#fde68a" fill-opacity=".6"/><path d="M1030 210 H1290" stroke="#fde68a" stroke-opacity=".45" stroke-width="1.6"/><circle cx="1302" cy="210" r="4" fill="#fde68a" fill-opacity=".6"/><text x="800" y="394" text-anchor="middle" font-family="Georgia, 'Times New Roman', serif" font-size="22" letter-spacing="8" fill="#fde68a" fill-opacity=".8">THAME</text></svg>