<svg xmlns="http://www.w3.org/2000/svg" width="1600" height="420" viewBox="0 0 1600 420"><defs><linearGradient id="g" x1="0" y1="0" x2="1" y2="1"><stop offset="0" stop-color="#221c17"/><stop offset="1" stop-color="#57483a"/></linearGradient></defs><rect width="1600" height="420" fill="url(#g)"/><rect x="30" y="298" width="26" height="72" rx="13" fill="#e7c9a0" fill-opacity="0.14"/><rect x="82" y="276" width="26" height="94" rx="13" fill="#e7c9a0" fill-opacity="0.25"/><rect x="134" y="210" width="26" height="160" rx="13" fill="#e7c9a0" fill-opacity="0.36"/><rect x="186" y="100" width="26" height="270" rx="13" fill="#e7c9a0" fill-opacity="0.47"/><rect x="238" y="232" width="26" height="138" rx="13" fill="#e7c9a0" fill-opacity="0.58"/><rect x="290" y="320" width="26" height="50" rx="13" fill="#e7c9a0" fill-opacity="0.69"/><rect x="342" y="78" width="26" height="292" rx="13" fill="#e7c9a0" fill-opacity="0.14"/><rect x="394" y="78" width="26" height="292" rx="13" fill="#e7c9a0" fill-opacity="0.25"/><rect x="446" y="320" width="26" height="50" rx="13" fill="#e7c9a0" fill-opacity="0.36"/><rect x="498" y="232" width="26" height="138" rx="13" fill="#e7c9a0" fill-opacity="0.47"/><rect x="550" y="100" width="26" height="270" rx="13" fill="#e7c9a0" fill-opacity="0.58"/><rect x="602" y="210" width="26" height="160" rx="13" fill="#e7c9a0" fill-opacity="0.69"/><rect x="654" y="276" width="26" height="94" rx="13" fill="#e7c9a0" fill-opacity="0.14"/><rect x="706" y="298" width="26" height="72" rx="13" fill="#e7c9a0" fill-opacity="0.25"/><rect x="758" y="276" width="26" height="94" rx="13" fill="#e7c9a0" fill-opacity="0.36"/><rect x="810" y="210" width="26" height="160" rx="13" fill="#e7c9a0" fill-opacity="0.47"/><rect x="862" y="100" width="26" height="270" rx="13" fill="#e7c9a0" fill-opacity="0.58"/><rect x="914" y="232" width="26" height="138" rx="13" fill="#e7c9a0" fill-opacity="0.69"/><rect x="966" y="320" width="26" height="50" rx="13" fill="#e7c9a0" fill-opacity="0.14"/><rect x="1018" y="78" width="26" height="292" rx="13" fill="#e7c9a0" fill-opacity="0.25"/><rect x="1070" y="78" width="26" height="292" rx="13" fill="#e7c9a0" fill-opacity="0.36"/><rect x="1122" y="320" width="26" height="50" rx="13" fill="#e7c9a0" fill-opacity="0.47"/><rect x="1174" y="232" width="26" height="138" rx="13" fill="#e7c9a0" fill-opacity="0.58"/><rect x="1226" y="100" width="26" height="270" rx="13" fill="#e7c9a0" fill-opacity="0.69"/><rect x="1278" y="210" width="26" height="160" rx="13" fill="#e7c9a0" fill-opacity="0.14"/><rect x="1330" y="276" width="26" height="94" rx="13" fill="#e7c9a0" fill-opacity="0.25"/><rect x="1382" y="298" width="26" height="72" rx="13" fill="#e7c9a0" fill-opacity="0.36"/><rect x="1434" y="276" width="26" height="94" rx="13" fill="#e7c9a0" fill-opacity="0.47"/><rect x="1486" y="210" width="26" height="160" rx="13" fill="#e7c9a0" fill-opacity="0.58"/><rect x="1538" y="100" width="26" height="270" rx="13" fill="#e7c9a0" fill-opacity="0.69"/></svg>