<svg xmlns="http://www.w3.org/2000/svg" width="1600" height="420" viewBox="0 0 1600 420"><defs><linearGradient id="g" x1="0" y1="0" x2="1" y2="1"><stop offset="0" stop-color="#12261b"/><stop offset="1" stop-color="#2f5a3f"/></linearGradient><radialGradient id="r" cx="0.5" cy="0.5" r="0.5"><stop offset="0" stop-color="#f1f5e8" stop-opacity="0.07"/><stop offset="1" stop-color="#f1f5e8" stop-opacity="0"/></radialGradient></defs><rect width="1600" height="420" fill="url(#g)"/><ellipse cx="800" cy="210" rx="520" ry="230" fill="url(#r)"/><line x1="73.0" y1="40.0" x2="87.0" y2="40.0" stroke="#f1f5e8" stroke-opacity="0.18" stroke-width="1.2" stroke-linecap="round"/><line x1="80.0" y1="33.0" x2="80.0" y2="47.0" stroke="#f1f5e8" stroke-opacity="0.18" stroke-width="1.2" stroke-linecap="round"/><line x1="73.0" y1="210.0" x2="87.0" y2="210.0" stroke="#f1f5e8" stroke-opacity="0.18" stroke-width="1.2" stroke-linecap="round"/><line x1="80.0" y1="203.0" x2="80.0" y2="217.0" stroke="#f1f5e8" stroke-opacity="0.18" stroke-width="1.2" stroke-linecap="round"/><line x1="73.0" y1="380.0" x2="87.0" y2="380.0" stroke="#f1f5e8" stroke-opacity="0.18" stroke-width="1.2" stroke-linecap="round"/><line x1="80.0" y1="373.0" x2="80.0" y2="387.0" stroke="#f1f5e8" stroke-opacity="0.18" stroke-width="1.2" stroke-linecap="round"/><line x1="233.0" y1="40.0" x2="247.0" y2="40.0" stroke="#f1f5e8" stroke-opacity="0.18" stroke-width="1.2" stroke-linecap="round"/><line x1="240.0" y1="33.0" x2="240.0" y2="47.0" stroke="#f1f5e8" stroke-opacity="0.18" stroke-width="1.2" stroke-linecap="round"/><line x1="233.0" y1="210.0" x2="247.0" y2="210.0" stroke="#f1f5e8" stroke-opacity="0.18" stroke-width="1.2" stroke-linecap="round"/><line x1="240.0" y1="203.0" x2="240.0" y2="217.0" stroke="#f1f5e8" stroke-opacity="0.18" stroke-width="1.2" stroke-linecap="round"/><line x1="233.0" y1="380.0" x2="247.0" y2="380.0" stroke="#f1f5e8" stroke-opacity="0.18" stroke-width="1.2" stroke-linecap="round"/><line x1="240.0" y1="373.0" x2="240.0" y2="387.0" stroke="#f1f5e8" stroke-opacity="0.18" stroke-width="1.2" stroke-linecap="round"/><line x1="393.0" y1="40.0" x2="407.0" y2="40.0" stroke="#f1f5e8" stroke-opacity="0.18" stroke-width="1.2" stroke-linecap="round"/><line x1="400.0" y1="33.0" x2="400.0" y2="47.0" stroke="#f1f5e8" stroke-opacity="0.18" stroke-width="1.2" stroke-linecap="round"/><line x1="393.0" y1="210.0" x2="407.0" y2="210.0" stroke="#f1f5e8" stroke-opacity="0.18" stroke-width="1.2" stroke-linecap="round"/><line x1="400.0" y1="203.0" x2="400.0" y2="217.0" stroke="#f1f5e8" stroke-opacity="0.18" stroke-width="1.2" stroke-linecap="round"/><line x1="393.0" y1="380.0" x2="407.0" y2="380.0" stroke="#f1f5e8" stroke-opacity="0.18" stroke-width="1.2" stroke-linecap="round"/><line x1="400.0" y1="373.0" x2="400.0" y2="387.0" stroke="#f1f5e8" stroke-opacity="0.18" stroke-width="1.2" stroke-linecap="round"/><line x1="1193.0" y1="40.0" x2="1207.0" y2="40.0" stroke="#f1f5e8" stroke-opacity="0.18" stroke-width="1.2" stroke-linecap="round"/><line x1="1200.0" y1="33.0" x2="1200.0" y2="47.0" stroke="#f1f5e8" stroke-opacity="0.18" stroke-width="1.2" stroke-linecap="round"/><line x1="1193.0" y1="210.0" x2="1207.0" y2="210.0" stroke="#f1f5e8" stroke-opacity="0.18" stroke-width="1.2" stroke-linecap="round"/><line x1="1200.0" y1="203.0" x2="1200.0" y2="217.0" stroke="#f1f5e8" stroke-opacity="0.18" stroke-width="1.2" stroke-linecap="round"/><line x1="1193.0" y1="380.0" x2="1207.0" y2="380.0" stroke="#f1f5e8" stroke-opacity="0.18" stroke-width="1.2" stroke-linecap="round"/><line x1="1200.0" y1="373.0" x2="1200.0" y2="387.0" stroke="#f1f5e8" stroke-opacity="0.18" stroke-width="1.2" stroke-linecap="round"/><line x1="1353.0" y1="40.0" x2="1367.0" y2="40.0" stroke="#f1f5e8" stroke-opacity="0.18" stroke-width="1.2" stroke-linecap="round"/><line x1="1360.0" y1="33.0" x2="1360.0" y2="47.0" stroke="#f1f5e8" stroke-opacity="0.18" stroke-width="1.2" stroke-linecap="round"/><line x1="1353.0" y1="210.0" x2="1367.0" y2="210.0" stroke="#f1f5e8" stroke-opacity="0.18" stroke-width="1.2" stroke-linecap="round"/><line x1="1360.0" y1="203.0" x2="1360.0" y2="217.0" stroke="#f1f5e8" stroke-opacity="0.18" stroke-width="1.2" stroke-linecap="round"/><line x1="1353.0" y1="380.0" x2="1367.0" y2="380.0" stroke="#f1f5e8" stroke-opacity="0.18" stroke-width="1.2" stroke-linecap="round"/><line x1="1360.0" y1="373.0" x2="1360.0" y2="387.0" stroke="#f1f5e8" stroke-opacity="0.18" stroke-width="1.2" stroke-linecap="round"/><line x1="1513.0" y1="40.0" x2="1527.0" y2="40.0" stroke="#f1f5e8" stroke-opacity="0.18" stroke-width="1.2" stroke-linecap="round"/><line x1="1520.0" y1="33.0" x2="1520.0" y2="47.0" stroke="#f1f5e8" stroke-opacity="0.18" stroke-width="1.2" stroke-linecap="round"/><line x1="1513.0" y1="210.0" x2="1527.0" y2="210.0" stroke="#f1f5e8" stroke-opacity="0.18" stroke-width="1.2" stroke-linecap="round"/><line x1="1520.0" y1="203.0" x2="1520.0" y2="217.0" stroke="#f1f5e8" stroke-opacity="0.18" stroke-width="1.2" stroke-linecap="round"/><line x1="1513.0" y1="380.0" x2="1527.0" y2="380.0" stroke="#f1f5e8" stroke-opacity="0.18" stroke-width="1.2" stroke-linecap="round"/><line x1="1520.0" y1="373.0" x2="1520.0" y2="387.0" stroke="#f1f5e8" stroke-opacity="0.18" stroke-width="1.2" stroke-linecap="round"/><line x1="480.0" y1="30.0" x2="1120.0" y2="30.0" stroke="#f1f5e8" stroke-opacity="0.35" stroke-width="1.4" stroke-linecap="round"/><line x1="474.0" y1="36.0" x2="486.0" y2="24.0" stroke="#f1f5e8" stroke-opacity="0.45" stroke-width="1.6" stroke-linecap="round"/><line x1="480.0" y1="21.0" x2="480.0" y2="42.0" stroke="#f1f5e8" stroke-opacity="0.35" stroke-width="1.2" stroke-linecap="round"/><line x1="1114.0" y1="36.0" x2="1126.0" y2="24.0" stroke="#f1f5e8" stroke-opacity="0.45" stroke-width="1.6" stroke-linecap="round"/><line x1="1120.0" y1="21.0" x2="1120.0" y2="42.0" stroke="#f1f5e8" stroke-opacity="0.35" stroke-width="1.2" stroke-linecap="round"/><rect x="140.0" y="350.0" width="36.0" height="9.0" rx="0" fill="#f1f5e8" fill-opacity="0.25" stroke="#f1f5e8" stroke-opacity="0.4" stroke-width="1.4"/><rect x="176.0" y="350.0" width="36.0" height="9.0" rx="0" fill="none" stroke="#f1f5e8" stroke-opacity="0.4" stroke-width="1.4"/><rect x="212.0" y="350.0" width="36.0" height="9.0" rx="0" fill="#f1f5e8" fill-opacity="0.25" stroke="#f1f5e8" stroke-opacity="0.4" stroke-width="1.4"/><rect x="248.0" y="350.0" width="36.0" height="9.0" rx="0" fill="none" stroke="#f1f5e8" stroke-opacity="0.4" stroke-width="1.4"/><rect x="284.0" y="350.0" width="36.0" height="9.0" rx="0" fill="#f1f5e8" fill-opacity="0.25" stroke="#f1f5e8" stroke-opacity="0.4" stroke-width="1.4"/><circle cx="1420.0" cy="120.0" r="30.0" fill="none" stroke="#f1f5e8" stroke-opacity="0.35" stroke-width="1.6"/><path d="M1420 80 L1431 128 L1420 120 L1409 128 Z" fill="#f1f5e8" fill-opacity="0.18" stroke="#f1f5e8" stroke-opacity="0.5" stroke-width="1.6" stroke-linecap="round" stroke-linejoin="round"/><rect x="1260.0" y="300.0" width="250.0" height="80.0" rx="0" fill="none" stroke="#f1f5e8" stroke-opacity="0.28" stroke-width="1.4"/><line x1="1260.0" y1="330.0" x2="1510.0" y2="330.0" stroke="#f1f5e8" stroke-opacity="0.22" stroke-width="1.2" stroke-linecap="round"/><line x1="1390.0" y1="300.0" x2="1390.0" y2="380.0" stroke="#f1f5e8" stroke-opacity="0.22" stroke-width="1.2" stroke-linecap="round"/><line x1="1275.0" y1="348.0" x2="1370.0" y2="348.0" stroke="#f1f5e8" stroke-opacity="0.2" stroke-width="2" stroke-linecap="round"/><line x1="1275.0" y1="359.0" x2="1352.0" y2="359.0" stroke="#f1f5e8" stroke-opacity="0.2" stroke-width="2" stroke-linecap="round"/><line x1="1275.0" y1="370.0" x2="1334.0" y2="370.0" stroke="#f1f5e8" stroke-opacity="0.2" stroke-width="2" stroke-linecap="round"/><mask id="mRoom1"><rect width="1600" height="420" fill="white"/><rect x="700" y="342" width="200" height="16" fill="black"/><rect x="1072" y="100" width="16" height="80" fill="black"/><rect x="512" y="250" width="16" height="70" fill="black"/></mask><g mask="url(#mRoom1)"><rect x="520.0" y="70.0" width="560.0" height="280.0" rx="0" fill="none" stroke="#f1f5e8" stroke-opacity="0.9" stroke-width="9"/></g><line x1="700.0" y1="345.0" x2="900.0" y2="345.0" stroke="#f1f5e8" stroke-opacity="0.7" stroke-width="1.6" stroke-linecap="round"/><line x1="700.0" y1="350.0" x2="900.0" y2="350.0" stroke="#f1f5e8" stroke-opacity="0.7" stroke-width="1.6" stroke-linecap="round"/><line x1="700.0" y1="355.0" x2="900.0" y2="355.0" stroke="#f1f5e8" stroke-opacity="0.7" stroke-width="1.6" stroke-linecap="round"/><line x1="520.0" y1="320.0" x2="590.0" y2="320.0" stroke="#f1f5e8" stroke-opacity="0.55" stroke-width="2.5" stroke-linecap="round"/><path d="M520.0 250.0 A70 70 0 0 1 590.0 320.0" fill="none" stroke="#f1f5e8" stroke-opacity="0.385" stroke-width="1.6" stroke-linecap="round" stroke-linejoin="round"/><line x1="1075.0" y1="100.0" x2="1075.0" y2="180.0" stroke="#f1f5e8" stroke-opacity="0.7" stroke-width="1.6" stroke-linecap="round"/><line x1="1080.0" y1="100.0" x2="1080.0" y2="180.0" stroke="#f1f5e8" stroke-opacity="0.7" stroke-width="1.6" stroke-linecap="round"/><line x1="1085.0" y1="100.0" x2="1085.0" y2="180.0" stroke="#f1f5e8" stroke-opacity="0.7" stroke-width="1.6" stroke-linecap="round"/><rect x="670.0" y="160.0" width="250.0" height="130.0" rx="10" fill="none" stroke="#f1f5e8" stroke-opacity="0.35" stroke-width="1.6"/><rect x="680.0" y="170.0" width="230.0" height="110.0" rx="6" fill="none" stroke="#f1f5e8" stroke-opacity="0.27999999999999997" stroke-width="1.2"/><rect x="680.0" y="86.0" width="230.0" height="60.0" rx="6" fill="none" stroke="#f1f5e8" stroke-opacity="0.6" stroke-width="2.5"/><rect x="692.0" y="100.0" width="206.0" height="46.0" rx="4" fill="none" stroke="#f1f5e8" stroke-opacity="0.6" stroke-width="2"/><line x1="760.7" y1="100.0" x2="760.7" y2="146.0" stroke="#f1f5e8" stroke-opacity="0.42" stroke-width="1.6" stroke-linecap="round"/><line x1="829.3" y1="100.0" x2="829.3" y2="146.0" stroke="#f1f5e8" stroke-opacity="0.42" stroke-width="1.6" stroke-linecap="round"/><rect x="750.0" y="200.0" width="90.0" height="50.0" rx="6" fill="none" stroke="#f1f5e8" stroke-opacity="0.55" stroke-width="2.2"/><rect x="534.0" y="160.0" width="36.0" height="120.0" rx="0" fill="none" stroke="#f1f5e8" stroke-opacity="0.55" stroke-width="2"/><circle cx="1000.0" cy="160.0" r="32.0" fill="none" stroke="#f1f5e8" stroke-opacity="0.55" stroke-width="2.2"/><circle cx="1000.0" cy="160.0" r="18.0" fill="none" stroke="#f1f5e8" stroke-opacity="0.45" stroke-width="1.6"/><circle cx="590.0" cy="110.0" r="14.0" fill="none" stroke="#f1f5e8" stroke-opacity="0.4" stroke-width="1.6"/></svg>