<svg xmlns="http://www.w3.org/2000/svg" width="900" height="320" viewBox="0 0 900 320" font-family="Helvetica, Arial, sans-serif"><rect width="900" height="320" fill="#ffffff"/><rect x="83.4" y="152.6" width="70.3" height="117.4" fill="#1f7a6b" rx="3"/><line x1="79.4" y1="136.8" x2="157.7" y2="136.8" stroke="#e76f51" stroke-width="3"/><text x="118.6" y="290" font-size="13" text-anchor="middle" fill="#333">Mar</text><text x="118.6" y="146.6" font-size="12" text-anchor="middle" fill="#333">5,730</text><rect x="200.6" y="97.9" width="70.3" height="172.1" fill="#1f7a6b" rx="3"/><line x1="196.6" y1="136.8" x2="274.9" y2="136.8" stroke="#e76f51" stroke-width="3"/><text x="235.7" y="290" font-size="13" text-anchor="middle" fill="#333">Apr</text><text x="235.7" y="91.9" font-size="12" text-anchor="middle" fill="#333">8,400</text><rect x="317.7" y="207.5" width="70.3" height="62.5" fill="#1f7a6b" rx="3"/><line x1="313.7" y1="136.8" x2="392.0" y2="136.8" stroke="#e76f51" stroke-width="3"/><text x="352.9" y="290" font-size="13" text-anchor="middle" fill="#333">May</text><text x="352.9" y="201.5" font-size="12" text-anchor="middle" fill="#333">3,050</text><rect x="434.9" y="101.0" width="70.3" height="169.0" fill="#1f7a6b" rx="3"/><line x1="430.9" y1="126.6" x2="509.1" y2="126.6" stroke="#e76f51" stroke-width="3"/><text x="470.0" y="290" font-size="13" text-anchor="middle" fill="#333">Jun</text><text x="470.0" y="95.0" font-size="12" text-anchor="middle" fill="#333">8,250</text><rect x="552.0" y="168.3" width="70.3" height="101.7" fill="#1f7a6b" rx="3"/><line x1="548.0" y1="126.6" x2="626.3" y2="126.6" stroke="#e76f51" stroke-width="3"/><text x="587.1" y="290" font-size="13" text-anchor="middle" fill="#333">Jul</text><text x="587.1" y="162.3" font-size="12" text-anchor="middle" fill="#333">4,965</text><rect x="669.1" y="174.7" width="70.3" height="95.3" fill="#1f7a6b" rx="3"/><rect x="669.1" y="51.8" width="70.3" height="122.9" fill="#9fd3c7" rx="3"/><line x1="665.1" y1="126.6" x2="743.4" y2="126.6" stroke="#e76f51" stroke-width="3"/><text x="704.3" y="290" font-size="13" text-anchor="middle" fill="#333">Aug</text><text x="704.3" y="45.8" font-size="12" text-anchor="middle" fill="#333">10,650</text><rect x="786.3" y="220.8" width="70.3" height="49.2" fill="#1f7a6b" rx="3"/><rect x="786.3" y="173.5" width="70.3" height="47.3" fill="#9fd3c7" rx="3"/><line x1="782.3" y1="126.6" x2="860.6" y2="126.6" stroke="#e76f51" stroke-width="3"/><text x="821.4" y="290" font-size="13" text-anchor="middle" fill="#333">Sep</text><text x="821.4" y="167.5" font-size="12" text-anchor="middle" fill="#333">4,710</text><line x1="60" y1="270" x2="880" y2="270" stroke="#999"/><g font-size="12" fill="#333"><rect x="60" y="8" width="14" height="14" fill="#1f7a6b"/><text x="80" y="20">Received</text><rect x="170" y="8" width="14" height="14" fill="#9fd3c7"/><text x="190" y="20">Still expected</text><line x1="310" y1="15" x2="340" y2="15" stroke="#e76f51" stroke-width="3"/><text x="348" y="20">Monthly target</text></g></svg>