<svg xmlns="http://www.w3.org/2000/svg" width="1600" height="420" viewBox="0 0 1600 420"><defs><linearGradient id="g" x1="0" y1="0" x2="1" y2="1"><stop offset="0" stop-color="#2e2410"/><stop offset="1" stop-color="#6b5320"/></linearGradient><radialGradient id="glow" cx=".5" cy=".5" r=".5"><stop offset="0" stop-color="#fde68a" stop-opacity=".16"/><stop offset="1" stop-color="#fde68a" stop-opacity="0"/></radialGradient></defs><rect width="1600" height="420" fill="url(#g)"/><circle cx="719" cy="193" r="2.5" fill="#fde68a" fill-opacity="0.09"/><circle cx="645" cy="6" r="2.5" fill="#fde68a" fill-opacity="0.12"/><circle cx="846" cy="12" r="1.8" fill="#fde68a" fill-opacity="0.17"/><circle cx="906" cy="199" r="3.2" fill="#fde68a" fill-opacity="0.07"/><circle cx="856" cy="18" r="3.2" fill="#fde68a" fill-opacity="0.10"/><circle cx="496" cy="66" r="2.5" fill="#fde68a" fill-opacity="0.20"/><circle cx="33" cy="256" r="2.5" fill="#fde68a" fill-opacity="0.12"/><circle cx="15" cy="380" r="2.5" fill="#fde68a" fill-opacity="0.19"/><circle cx="1162" cy="219" r="1.8" fill="#fde68a" fill-opacity="0.07"/><circle cx="801" cy="188" r="2.5" fill="#fde68a" fill-opacity="0.18"/><circle cx="359" cy="5" r="2.5" fill="#fde68a" fill-opacity="0.18"/><circle cx="1094" cy="30" r="3.2" fill="#fde68a" fill-opacity="0.08"/><circle cx="150" cy="228" r="3.2" fill="#fde68a" fill-opacity="0.10"/><circle cx="582" cy="117" r="3.2" fill="#fde68a" fill-opacity="0.23"/><circle cx="840" cy="402" r="1.2" fill="#fde68a" fill-opacity="0.24"/><circle cx="225" cy="224" r="2.5" fill="#fde68a" fill-opacity="0.18"/><circle cx="31" cy="413" r="3.2" fill="#fde68a" fill-opacity="0.16"/><circle cx="1150" cy="171" r="2.5" fill="#fde68a" fill-opacity="0.24"/><circle cx="1460" cy="77" r="1.2" fill="#fde68a" fill-opacity="0.12"/><circle cx="462" cy="53" r="3.2" fill="#fde68a" fill-opacity="0.22"/><circle cx="369" cy="146" r="2.5" fill="#fde68a" fill-opacity="0.07"/><circle cx="1527" cy="366" r="2.5" fill="#fde68a" fill-opacity="0.13"/><circle cx="1546" cy="294" r="1.8" fill="#fde68a" fill-opacity="0.08"/><circle cx="700" cy="86" r="1.2" fill="#fde68a" fill-opacity="0.19"/><circle cx="492" cy="309" r="1.8" fill="#fde68a" fill-opacity="0.28"/><circle cx="449" cy="100" r="1.2" fill="#fde68a" fill-opacity="0.10"/><circle cx="687" cy="287" r="1.8" fill="#fde68a" fill-opacity="0.11"/><circle cx="452" cy="324" r="1.2" fill="#fde68a" fill-opacity="0.12"/><circle cx="295" cy="237" r="1.8" fill="#fde68a" fill-opacity="0.19"/><circle cx="1589" cy="141" r="1.2" fill="#fde68a" fill-opacity="0.26"/><circle cx="1553" cy="329" r="2.5" fill="#fde68a" fill-opacity="0.23"/><circle cx="122" cy="348" r="1.2" fill="#fde68a" fill-opacity="0.20"/><circle cx="932" cy="77" r="1.8" fill="#fde68a" fill-opacity="0.08"/><circle cx="508" cy="299" r="1.2" fill="#fde68a" fill-opacity="0.23"/><circle cx="30" cy="146" r="3.2" fill="#fde68a" fill-opacity="0.09"/><circle cx="467" cy="90" r="2.5" fill="#fde68a" fill-opacity="0.10"/><circle cx="223" cy="328" r="3.2" fill="#fde68a" fill-opacity="0.21"/><circle cx="1529" cy="352" r="2.5" fill="#fde68a" fill-opacity="0.24"/><circle cx="212" cy="170" r="1.8" fill="#fde68a" fill-opacity="0.08"/><circle cx="231" cy="367" r="1.8" fill="#fde68a" fill-opacity="0.19"/><circle cx="181" cy="222" r="3.2" fill="#fde68a" fill-opacity="0.10"/><circle cx="1323" cy="108" r="3.2" fill="#fde68a" fill-opacity="0.13"/><circle cx="1048" cy="338" r="2.5" fill="#fde68a" fill-opacity="0.13"/><circle cx="653" cy="163" r="1.8" fill="#fde68a" fill-opacity="0.22"/><circle cx="262" cy="420" r="3.2" fill="#fde68a" fill-opacity="0.17"/><circle cx="699" cy="15" r="1.8" fill="#fde68a" fill-opacity="0.20"/><circle cx="1280" cy="174" r="1.8" fill="#fde68a" fill-opacity="0.24"/><circle cx="1101" cy="258" r="1.8" fill="#fde68a" fill-opacity="0.24"/><circle cx="1390" cy="120" r="1.2" fill="#fde68a" fill-opacity="0.13"/><circle cx="935" cy="243" r="2.5" fill="#fde68a" fill-opacity="0.19"/><circle cx="547" cy="3" r="1.2" fill="#fde68a" fill-opacity="0.10"/><circle cx="1551" cy="212" r="3.2" fill="#fde68a" fill-opacity="0.12"/><circle cx="729" cy="81" r="1.2" fill="#fde68a" fill-opacity="0.11"/><circle cx="1542" cy="5" r="2.5" fill="#fde68a" fill-opacity="0.22"/><circle cx="76" cy="125" r="3.2" fill="#fde68a" fill-opacity="0.19"/><circle cx="791" cy="229" r="1.8" fill="#fde68a" fill-opacity="0.08"/><circle cx="1034" cy="134" r="3.2" fill="#fde68a" fill-opacity="0.13"/><circle cx="329" cy="218" r="1.2" fill="#fde68a" fill-opacity="0.12"/><circle cx="857" cy="201" r="2.5" fill="#fde68a" fill-opacity="0.11"/><circle cx="1491" cy="130" r="1.2" fill="#fde68a" fill-opacity="0.23"/><circle cx="105" cy="328" r="3.2" fill="#fde68a" fill-opacity="0.18"/><circle cx="396" cy="195" r="1.8" fill="#fde68a" fill-opacity="0.11"/><circle cx="161" cy="299" r="1.8" fill="#fde68a" fill-opacity="0.25"/><circle cx="789" cy="405" r="2.5" fill="#fde68a" fill-opacity="0.21"/><circle cx="1165" cy="105" r="1.2" fill="#fde68a" fill-opacity="0.19"/><circle cx="1424" cy="72" r="1.8" fill="#fde68a" fill-opacity="0.14"/><circle cx="506" cy="116" r="1.2" fill="#fde68a" fill-opacity="0.18"/><circle cx="1002" cy="34" r="1.2" fill="#fde68a" fill-opacity="0.22"/><circle cx="992" cy="163" r="2.5" fill="#fde68a" fill-opacity="0.06"/><circle cx="475" cy="312" r="1.8" fill="#fde68a" fill-opacity="0.20"/><circle cx="1186" cy="128" r="1.2" fill="#fde68a" fill-opacity="0.15"/><circle cx="567" cy="327" r="2.5" fill="#fde68a" fill-opacity="0.24"/><circle cx="1217" cy="63" r="3.2" fill="#fde68a" fill-opacity="0.21"/><circle cx="652" cy="236" r="2.5" fill="#fde68a" fill-opacity="0.23"/><rect x="18" y="18" width="1564" height="384" rx="6" fill="none" stroke="#fde68a" stroke-opacity=".32" stroke-width="1.6"/><rect x="28" y="28" width="1544" height="364" rx="4" fill="none" stroke="#fde68a" stroke-opacity=".16" stroke-width="1"/><ellipse cx="800" cy="210" rx="420" ry="190" fill="url(#glow)"/><g transform="translate(655 70) scale(1.45)"><path d="M14 70 Q100 50 186 70" fill="none" stroke="#fde68a" stroke-width="1.6" stroke-linecap="round" stroke-linejoin="round" stroke-opacity=".45"/><path d="M14 84 Q100 64 186 84" fill="none" stroke="#fde68a" stroke-width="1.6" stroke-linecap="round" stroke-linejoin="round" stroke-opacity=".45"/><path d="M14 98 Q100 78 186 98" fill="none" stroke="#fde68a" stroke-width="1.6" stroke-linecap="round" stroke-linejoin="round" stroke-opacity=".45"/><path d="M14 112 Q100 92 186 112" fill="none" stroke="#fde68a" stroke-width="1.6" stroke-linecap="round" stroke-linejoin="round" stroke-opacity=".45"/><path d="M14 126 Q100 106 186 126" fill="none" stroke="#fde68a" stroke-width="1.6" stroke-linecap="round" stroke-linejoin="round" stroke-opacity=".45"/><ellipse cx="60" cy="132" rx="14" ry="10" transform="rotate(-20 60 132)" fill="#fde68a"/><path d="M72 128 V60" fill="none" stroke="#fde68a" stroke-width="4" stroke-linecap="round" stroke-linejoin="round"/><ellipse cx="112" cy="118" rx="14" ry="10" transform="rotate(-20 112 118)" fill="#fde68a"/><path d="M124 114 V46" fill="none" stroke="#fde68a" stroke-width="4" stroke-linecap="round" stroke-linejoin="round"/><path d="M72 60 L124 46" fill="none" stroke="#fde68a" stroke-width="7" stroke-linecap="round" stroke-linejoin="round"/><ellipse cx="150" cy="150" rx="12" ry="9" transform="rotate(-20 150 150)" fill="#fde68a"/><path d="M160 146 V88 Q176 100 172 118" fill="none" stroke="#fde68a" stroke-width="4" stroke-linecap="round" stroke-linejoin="round"/></g><path d="M570 210 H310" stroke="#fde68a" stroke-opacity=".45" stroke-width="1.6"/><circle cx="298" cy="210" r="4" fill="#fde68a" fill-opacity=".6"/><path d="M1030 210 H1290" stroke="#fde68a" stroke-opacity=".45" stroke-width="1.6"/><circle cx="1302" cy="210" r="4" fill="#fde68a" fill-opacity=".6"/><text x="800" y="394" text-anchor="middle" font-family="Georgia, 'Times New Roman', serif" font-size="22" letter-spacing="8" fill="#fde68a" fill-opacity=".8">THE BRASS HEARTS</text></svg>