<svg xmlns="http://www.w3.org/2000/svg" width="1600" height="420" viewBox="0 0 1600 420"><defs><linearGradient id="g" x1="0" y1="0" x2="1" y2="1"><stop offset="0" stop-color="#0d1b2a"/><stop offset="1" stop-color="#1b3a4b"/></linearGradient></defs><rect width="1600" height="420" fill="url(#g)"/><rect x="40" y="195" width="59" height="165" rx="3" fill="#5eead4" fill-opacity="0.10"/><rect x="50" y="211" width="8" height="12" fill="#5eead4" fill-opacity="0.30"/><rect x="72" y="211" width="8" height="12" fill="#5eead4" fill-opacity="0.30"/><rect x="50" y="241" width="8" height="12" fill="#5eead4" fill-opacity="0.30"/><rect x="72" y="241" width="8" height="12" fill="#5eead4" fill-opacity="0.30"/><rect x="50" y="271" width="8" height="12" fill="#5eead4" fill-opacity="0.30"/><rect x="72" y="271" width="8" height="12" fill="#5eead4" fill-opacity="0.30"/><rect x="50" y="301" width="8" height="12" fill="#5eead4" fill-opacity="0.30"/><rect x="72" y="301" width="8" height="12" fill="#5eead4" fill-opacity="0.30"/><rect x="50" y="331" width="8" height="12" fill="#5eead4" fill-opacity="0.30"/><rect x="72" y="331" width="8" height="12" fill="#5eead4" fill-opacity="0.30"/><rect x="115" y="153" width="96" height="207" rx="3" fill="#5eead4" fill-opacity="0.10"/><rect x="125" y="169" width="8" height="12" fill="#5eead4" fill-opacity="0.30"/><rect x="147" y="169" width="8" height="12" fill="#5eead4" fill-opacity="0.30"/><rect x="169" y="169" width="8" height="12" fill="#5eead4" fill-opacity="0.30"/><rect x="191" y="169" width="8" height="12" fill="#5eead4" fill-opacity="0.30"/><rect x="125" y="199" width="8" height="12" fill="#5eead4" fill-opacity="0.30"/><rect x="147" y="199" width="8" height="12" fill="#5eead4" fill-opacity="0.30"/><rect x="169" y="199" width="8" height="12" fill="#5eead4" fill-opacity="0.30"/><rect x="191" y="199" width="8" height="12" fill="#5eead4" fill-opacity="0.30"/><rect x="125" y="229" width="8" height="12" fill="#5eead4" fill-opacity="0.30"/><rect x="147" y="229" width="8" height="12" fill="#5eead4" fill-opacity="0.30"/><rect x="169" y="229" width="8" height="12" fill="#5eead4" fill-opacity="0.30"/><rect x="191" y="229" width="8" height="12" fill="#5eead4" fill-opacity="0.30"/><rect x="125" y="259" width="8" height="12" fill="#5eead4" fill-opacity="0.30"/><rect x="147" y="259" width="8" height="12" fill="#5eead4" fill-opacity="0.30"/><rect x="169" y="259" width="8" height="12" fill="#5eead4" fill-opacity="0.30"/><rect x="191" y="259" width="8" height="12" fill="#5eead4" fill-opacity="0.30"/><rect x="125" y="289" width="8" height="12" fill="#5eead4" fill-opacity="0.30"/><rect x="147" y="289" width="8" height="12" fill="#5eead4" fill-opacity="0.30"/><rect x="169" y="289" width="8" height="12" fill="#5eead4" fill-opacity="0.30"/><rect x="191" y="289" width="8" height="12" fill="#5eead4" fill-opacity="0.30"/><rect x="125" y="319" width="8" height="12" fill="#5eead4" fill-opacity="0.30"/><rect x="147" y="319" width="8" height="12" fill="#5eead4" fill-opacity="0.30"/><rect x="169" y="319" width="8" height="12" fill="#5eead4" fill-opacity="0.30"/><rect x="191" y="319" width="8" height="12" fill="#5eead4" fill-opacity="0.30"/><rect x="125" y="349" width="8" height="12" fill="#5eead4" fill-opacity="0.30"/><rect x="147" y="349" width="8" height="12" fill="#5eead4" fill-opacity="0.30"/><rect x="169" y="349" width="8" height="12" fill="#5eead4" fill-opacity="0.30"/><rect x="191" y="349" width="8" height="12" fill="#5eead4" fill-opacity="0.30"/><rect x="227" y="236" width="80" height="124" rx="3" fill="#5eead4" fill-opacity="0.24"/><rect x="237" y="252" width="8" height="12" fill="#5eead4" fill-opacity="0.30"/><rect x="259" y="252" width="8" height="12" fill="#5eead4" fill-opacity="0.30"/><rect x="281" y="252" width="8" height="12" fill="#5eead4" fill-opacity="0.30"/><rect x="237" y="282" width="8" height="12" fill="#5eead4" fill-opacity="0.30"/><rect x="259" y="282" width="8" height="12" fill="#5eead4" fill-opacity="0.30"/><rect x="281" y="282" width="8" height="12" fill="#5eead4" fill-opacity="0.30"/><rect x="237" y="312" width="8" height="12" fill="#5eead4" fill-opacity="0.30"/><rect x="259" y="312" width="8" height="12" fill="#5eead4" fill-opacity="0.30"/><rect x="281" y="312" width="8" height="12" fill="#5eead4" fill-opacity="0.30"/><rect x="237" y="342" width="8" height="12" fill="#5eead4" fill-opacity="0.30"/><rect x="259" y="342" width="8" height="12" fill="#5eead4" fill-opacity="0.30"/><rect x="281" y="342" width="8" height="12" fill="#5eead4" fill-opacity="0.30"/><rect x="323" y="243" width="72" height="117" rx="3" fill="#5eead4" fill-opacity="0.31"/><rect x="333" y="259" width="8" height="12" fill="#5eead4" fill-opacity="0.30"/><rect x="355" y="259" width="8" height="12" fill="#5eead4" fill-opacity="0.30"/><rect x="377" y="259" width="8" height="12" fill="#5eead4" fill-opacity="0.30"/><rect x="333" y="289" width="8" height="12" fill="#5eead4" fill-opacity="0.30"/><rect x="355" y="289" width="8" height="12" fill="#5eead4" fill-opacity="0.30"/><rect x="377" y="289" width="8" height="12" fill="#5eead4" fill-opacity="0.30"/><rect x="333" y="319" width="8" height="12" fill="#5eead4" fill-opacity="0.30"/><rect x="355" y="319" width="8" height="12" fill="#5eead4" fill-opacity="0.30"/><rect x="377" y="319" width="8" height="12" fill="#5eead4" fill-opacity="0.30"/><rect x="333" y="349" width="8" height="12" fill="#5eead4" fill-opacity="0.30"/><rect x="355" y="349" width="8" height="12" fill="#5eead4" fill-opacity="0.30"/><rect x="377" y="349" width="8" height="12" fill="#5eead4" fill-opacity="0.30"/><rect x="411" y="61" width="61" height="299" rx="3" fill="#5eead4" fill-opacity="0.17"/><rect x="421" y="77" width="8" height="12" fill="#5eead4" fill-opacity="0.30"/><rect x="443" y="77" width="8" height="12" fill="#5eead4" fill-opacity="0.30"/><rect x="421" y="107" width="8" height="12" fill="#5eead4" fill-opacity="0.30"/><rect x="443" y="107" width="8" height="12" fill="#5eead4" fill-opacity="0.30"/><rect x="421" y="137" width="8" height="12" fill="#5eead4" fill-opacity="0.30"/><rect x="443" y="137" width="8" height="12" fill="#5eead4" fill-opacity="0.30"/><rect x="421" y="167" width="8" height="12" fill="#5eead4" fill-opacity="0.30"/><rect x="443" y="167" width="8" height="12" fill="#5eead4" fill-opacity="0.30"/><rect x="421" y="197" width="8" height="12" fill="#5eead4" fill-opacity="0.30"/><rect x="443" y="197" width="8" height="12" fill="#5eead4" fill-opacity="0.30"/><rect x="421" y="227" width="8" height="12" fill="#5eead4" fill-opacity="0.30"/><rect x="443" y="227" width="8" height="12" fill="#5eead4" fill-opacity="0.30"/><rect x="421" y="257" width="8" height="12" fill="#5eead4" fill-opacity="0.30"/><rect x="443" y="257" width="8" height="12" fill="#5eead4" fill-opacity="0.30"/><rect x="421" y="287" width="8" height="12" fill="#5eead4" fill-opacity="0.30"/><rect x="443" y="287" width="8" height="12" fill="#5eead4" fill-opacity="0.30"/><rect x="421" y="317" width="8" height="12" fill="#5eead4" fill-opacity="0.30"/><rect x="443" y="317" width="8" height="12" fill="#5eead4" fill-opacity="0.30"/><rect x="421" y="347" width="8" height="12" fill="#5eead4" fill-opacity="0.30"/><rect x="443" y="347" width="8" height="12" fill="#5eead4" fill-opacity="0.30"/><rect x="488" y="98" width="95" height="262" rx="3" fill="#5eead4" fill-opacity="0.31"/><rect x="498" y="114" width="8" height="12" fill="#5eead4" fill-opacity="0.30"/><rect x="520" y="114" width="8" height="12" fill="#5eead4" fill-opacity="0.30"/><rect x="542" y="114" width="8" height="12" fill="#5eead4" fill-opacity="0.30"/><rect x="564" y="114" width="8" height="12" fill="#5eead4" fill-opacity="0.30"/><rect x="498" y="144" width="8" height="12" fill="#5eead4" fill-opacity="0.30"/><rect x="520" y="144" width="8" height="12" fill="#5eead4" fill-opacity="0.30"/><rect x="542" y="144" width="8" height="12" fill="#5eead4" fill-opacity="0.30"/><rect x="564" y="144" width="8" height="12" fill="#5eead4" fill-opacity="0.30"/><rect x="498" y="174" width="8" height="12" fill="#5eead4" fill-opacity="0.30"/><rect x="520" y="174" width="8" height="12" fill="#5eead4" fill-opacity="0.30"/><rect x="542" y="174" width="8" height="12" fill="#5eead4" fill-opacity="0.30"/><rect x="564" y="174" width="8" height="12" fill="#5eead4" fill-opacity="0.30"/><rect x="498" y="204" width="8" height="12" fill="#5eead4" fill-opacity="0.30"/><rect x="520" y="204" width="8" height="12" fill="#5eead4" fill-opacity="0.30"/><rect x="542" y="204" width="8" height="12" fill="#5eead4" fill-opacity="0.30"/><rect x="564" y="204" width="8" height="12" fill="#5eead4" fill-opacity="0.30"/><rect x="498" y="234" width="8" height="12" fill="#5eead4" fill-opacity="0.30"/><rect x="520" y="234" width="8" height="12" fill="#5eead4" fill-opacity="0.30"/><rect x="542" y="234" width="8" height="12" fill="#5eead4" fill-opacity="0.30"/><rect x="564" y="234" width="8" height="12" fill="#5eead4" fill-opacity="0.30"/><rect x="498" y="264" width="8" height="12" fill="#5eead4" fill-opacity="0.30"/><rect x="520" y="264" width="8" height="12" fill="#5eead4" fill-opacity="0.30"/><rect x="542" y="264" width="8" height="12" fill="#5eead4" fill-opacity="0.30"/><rect x="564" y="264" width="8" height="12" fill="#5eead4" fill-opacity="0.30"/><rect x="498" y="294" width="8" height="12" fill="#5eead4" fill-opacity="0.30"/><rect x="520" y="294" width="8" height="12" fill="#5eead4" fill-opacity="0.30"/><rect x="542" y="294" width="8" height="12" fill="#5eead4" fill-opacity="0.30"/><rect x="564" y="294" width="8" height="12" fill="#5eead4" fill-opacity="0.30"/><rect x="498" y="324" width="8" height="12" fill="#5eead4" fill-opacity="0.30"/><rect x="520" y="324" width="8" height="12" fill="#5eead4" fill-opacity="0.30"/><rect x="542" y="324" width="8" height="12" fill="#5eead4" fill-opacity="0.30"/><rect x="564" y="324" width="8" height="12" fill="#5eead4" fill-opacity="0.30"/><rect x="599" y="215" width="90" height="145" rx="3" fill="#5eead4" fill-opacity="0.38"/><rect x="609" y="231" width="8" height="12" fill="#5eead4" fill-opacity="0.30"/><rect x="631" y="231" width="8" height="12" fill="#5eead4" fill-opacity="0.30"/><rect x="653" y="231" width="8" height="12" fill="#5eead4" fill-opacity="0.30"/><rect x="675" y="231" width="8" height="12" fill="#5eead4" fill-opacity="0.30"/><rect x="609" y="261" width="8" height="12" fill="#5eead4" fill-opacity="0.30"/><rect x="631" y="261" width="8" height="12" fill="#5eead4" fill-opacity="0.30"/><rect x="653" y="261" width="8" height="12" fill="#5eead4" fill-opacity="0.30"/><rect x="675" y="261" width="8" height="12" fill="#5eead4" fill-opacity="0.30"/><rect x="609" y="291" width="8" height="12" fill="#5eead4" fill-opacity="0.30"/><rect x="631" y="291" width="8" height="12" fill="#5eead4" fill-opacity="0.30"/><rect x="653" y="291" width="8" height="12" fill="#5eead4" fill-opacity="0.30"/><rect x="675" y="291" width="8" height="12" fill="#5eead4" fill-opacity="0.30"/><rect x="609" y="321" width="8" height="12" fill="#5eead4" fill-opacity="0.30"/><rect x="631" y="321" width="8" height="12" fill="#5eead4" fill-opacity="0.30"/><rect x="653" y="321" width="8" height="12" fill="#5eead4" fill-opacity="0.30"/><rect x="675" y="321" width="8" height="12" fill="#5eead4" fill-opacity="0.30"/><rect x="705" y="99" width="97" height="261" rx="3" fill="#5eead4" fill-opacity="0.10"/><rect x="715" y="115" width="8" height="12" fill="#5eead4" fill-opacity="0.30"/><rect x="737" y="115" width="8" height="12" fill="#5eead4" fill-opacity="0.30"/><rect x="759" y="115" width="8" height="12" fill="#5eead4" fill-opacity="0.30"/><rect x="781" y="115" width="8" height="12" fill="#5eead4" fill-opacity="0.30"/><rect x="715" y="145" width="8" height="12" fill="#5eead4" fill-opacity="0.30"/><rect x="737" y="145" width="8" height="12" fill="#5eead4" fill-opacity="0.30"/><rect x="759" y="145" width="8" height="12" fill="#5eead4" fill-opacity="0.30"/><rect x="781" y="145" width="8" height="12" fill="#5eead4" fill-opacity="0.30"/><rect x="715" y="175" width="8" height="12" fill="#5eead4" fill-opacity="0.30"/><rect x="737" y="175" width="8" height="12" fill="#5eead4" fill-opacity="0.30"/><rect x="759" y="175" width="8" height="12" fill="#5eead4" fill-opacity="0.30"/><rect x="781" y="175" width="8" height="12" fill="#5eead4" fill-opacity="0.30"/><rect x="715" y="205" width="8" height="12" fill="#5eead4" fill-opacity="0.30"/><rect x="737" y="205" width="8" height="12" fill="#5eead4" fill-opacity="0.30"/><rect x="759" y="205" width="8" height="12" fill="#5eead4" fill-opacity="0.30"/><rect x="781" y="205" width="8" height="12" fill="#5eead4" fill-opacity="0.30"/><rect x="715" y="235" width="8" height="12" fill="#5eead4" fill-opacity="0.30"/><rect x="737" y="235" width="8" height="12" fill="#5eead4" fill-opacity="0.30"/><rect x="759" y="235" width="8" height="12" fill="#5eead4" fill-opacity="0.30"/><rect x="781" y="235" width="8" height="12" fill="#5eead4" fill-opacity="0.30"/><rect x="715" y="265" width="8" height="12" fill="#5eead4" fill-opacity="0.30"/><rect x="737" y="265" width="8" height="12" fill="#5eead4" fill-opacity="0.30"/><rect x="759" y="265" width="8" height="12" fill="#5eead4" fill-opacity="0.30"/><rect x="781" y="265" width="8" height="12" fill="#5eead4" fill-opacity="0.30"/><rect x="715" y="295" width="8" height="12" fill="#5eead4" fill-opacity="0.30"/><rect x="737" y="295" width="8" height="12" fill="#5eead4" fill-opacity="0.30"/><rect x="759" y="295" width="8" height="12" fill="#5eead4" fill-opacity="0.30"/><rect x="781" y="295" width="8" height="12" fill="#5eead4" fill-opacity="0.30"/><rect x="715" y="325" width="8" height="12" fill="#5eead4" fill-opacity="0.30"/><rect x="737" y="325" width="8" height="12" fill="#5eead4" fill-opacity="0.30"/><rect x="759" y="325" width="8" height="12" fill="#5eead4" fill-opacity="0.30"/><rect x="781" y="325" width="8" height="12" fill="#5eead4" fill-opacity="0.30"/><rect x="818" y="64" width="78" height="296" rx="3" fill="#5eead4" fill-opacity="0.31"/><rect x="828" y="80" width="8" height="12" fill="#5eead4" fill-opacity="0.30"/><rect x="850" y="80" width="8" height="12" fill="#5eead4" fill-opacity="0.30"/><rect x="872" y="80" width="8" height="12" fill="#5eead4" fill-opacity="0.30"/><rect x="828" y="110" width="8" height="12" fill="#5eead4" fill-opacity="0.30"/><rect x="850" y="110" width="8" height="12" fill="#5eead4" fill-opacity="0.30"/><rect x="872" y="110" width="8" height="12" fill="#5eead4" fill-opacity="0.30"/><rect x="828" y="140" width="8" height="12" fill="#5eead4" fill-opacity="0.30"/><rect x="850" y="140" width="8" height="12" fill="#5eead4" fill-opacity="0.30"/><rect x="872" y="140" width="8" height="12" fill="#5eead4" fill-opacity="0.30"/><rect x="828" y="170" width="8" height="12" fill="#5eead4" fill-opacity="0.30"/><rect x="850" y="170" width="8" height="12" fill="#5eead4" fill-opacity="0.30"/><rect x="872" y="170" width="8" height="12" fill="#5eead4" fill-opacity="0.30"/><rect x="828" y="200" width="8" height="12" fill="#5eead4" fill-opacity="0.30"/><rect x="850" y="200" width="8" height="12" fill="#5eead4" fill-opacity="0.30"/><rect x="872" y="200" width="8" height="12" fill="#5eead4" fill-opacity="0.30"/><rect x="828" y="230" width="8" height="12" fill="#5eead4" fill-opacity="0.30"/><rect x="850" y="230" width="8" height="12" fill="#5eead4" fill-opacity="0.30"/><rect x="872" y="230" width="8" height="12" fill="#5eead4" fill-opacity="0.30"/><rect x="828" y="260" width="8" height="12" fill="#5eead4" fill-opacity="0.30"/><rect x="850" y="260" width="8" height="12" fill="#5eead4" fill-opacity="0.30"/><rect x="872" y="260" width="8" height="12" fill="#5eead4" fill-opacity="0.30"/><rect x="828" y="290" width="8" height="12" fill="#5eead4" fill-opacity="0.30"/><rect x="850" y="290" width="8" height="12" fill="#5eead4" fill-opacity="0.30"/><rect x="872" y="290" width="8" height="12" fill="#5eead4" fill-opacity="0.30"/><rect x="828" y="320" width="8" height="12" fill="#5eead4" fill-opacity="0.30"/><rect x="850" y="320" width="8" height="12" fill="#5eead4" fill-opacity="0.30"/><rect x="872" y="320" width="8" height="12" fill="#5eead4" fill-opacity="0.30"/><rect x="912" y="210" width="76" height="150" rx="3" fill="#5eead4" fill-opacity="0.24"/><rect x="922" y="226" width="8" height="12" fill="#5eead4" fill-opacity="0.30"/><rect x="944" y="226" width="8" height="12" fill="#5eead4" fill-opacity="0.30"/><rect x="966" y="226" width="8" height="12" fill="#5eead4" fill-opacity="0.30"/><rect x="922" y="256" width="8" height="12" fill="#5eead4" fill-opacity="0.30"/><rect x="944" y="256" width="8" height="12" fill="#5eead4" fill-opacity="0.30"/><rect x="966" y="256" width="8" height="12" fill="#5eead4" fill-opacity="0.30"/><rect x="922" y="286" width="8" height="12" fill="#5eead4" fill-opacity="0.30"/><rect x="944" y="286" width="8" height="12" fill="#5eead4" fill-opacity="0.30"/><rect x="966" y="286" width="8" height="12" fill="#5eead4" fill-opacity="0.30"/><rect x="922" y="316" width="8" height="12" fill="#5eead4" fill-opacity="0.30"/><rect x="944" y="316" width="8" height="12" fill="#5eead4" fill-opacity="0.30"/><rect x="966" y="316" width="8" height="12" fill="#5eead4" fill-opacity="0.30"/><rect x="922" y="346" width="8" height="12" fill="#5eead4" fill-opacity="0.30"/><rect x="944" y="346" width="8" height="12" fill="#5eead4" fill-opacity="0.30"/><rect x="966" y="346" width="8" height="12" fill="#5eead4" fill-opacity="0.30"/><rect x="1004" y="104" width="77" height="256" rx="3" fill="#5eead4" fill-opacity="0.38"/><rect x="1014" y="120" width="8" height="12" fill="#5eead4" fill-opacity="0.30"/><rect x="1036" y="120" width="8" height="12" fill="#5eead4" fill-opacity="0.30"/><rect x="1058" y="120" width="8" height="12" fill="#5eead4" fill-opacity="0.30"/><rect x="1014" y="150" width="8" height="12" fill="#5eead4" fill-opacity="0.30"/><rect x="1036" y="150" width="8" height="12" fill="#5eead4" fill-opacity="0.30"/><rect x="1058" y="150" width="8" height="12" fill="#5eead4" fill-opacity="0.30"/><rect x="1014" y="180" width="8" height="12" fill="#5eead4" fill-opacity="0.30"/><rect x="1036" y="180" width="8" height="12" fill="#5eead4" fill-opacity="0.30"/><rect x="1058" y="180" width="8" height="12" fill="#5eead4" fill-opacity="0.30"/><rect x="1014" y="210" width="8" height="12" fill="#5eead4" fill-opacity="0.30"/><rect x="1036" y="210" width="8" height="12" fill="#5eead4" fill-opacity="0.30"/><rect x="1058" y="210" width="8" height="12" fill="#5eead4" fill-opacity="0.30"/><rect x="1014" y="240" width="8" height="12" fill="#5eead4" fill-opacity="0.30"/><rect x="1036" y="240" width="8" height="12" fill="#5eead4" fill-opacity="0.30"/><rect x="1058" y="240" width="8" height="12" fill="#5eead4" fill-opacity="0.30"/><rect x="1014" y="270" width="8" height="12" fill="#5eead4" fill-opacity="0.30"/><rect x="1036" y="270" width="8" height="12" fill="#5eead4" fill-opacity="0.30"/><rect x="1058" y="270" width="8" height="12" fill="#5eead4" fill-opacity="0.30"/><rect x="1014" y="300" width="8" height="12" fill="#5eead4" fill-opacity="0.30"/><rect x="1036" y="300" width="8" height="12" fill="#5eead4" fill-opacity="0.30"/><rect x="1058" y="300" width="8" height="12" fill="#5eead4" fill-opacity="0.30"/><rect x="1014" y="330" width="8" height="12" fill="#5eead4" fill-opacity="0.30"/><rect x="1036" y="330" width="8" height="12" fill="#5eead4" fill-opacity="0.30"/><rect x="1058" y="330" width="8" height="12" fill="#5eead4" fill-opacity="0.30"/><rect x="1097" y="141" width="56" height="219" rx="3" fill="#5eead4" fill-opacity="0.24"/><rect x="1107" y="157" width="8" height="12" fill="#5eead4" fill-opacity="0.30"/><rect x="1129" y="157" width="8" height="12" fill="#5eead4" fill-opacity="0.30"/><rect x="1107" y="187" width="8" height="12" fill="#5eead4" fill-opacity="0.30"/><rect x="1129" y="187" width="8" height="12" fill="#5eead4" fill-opacity="0.30"/><rect x="1107" y="217" width="8" height="12" fill="#5eead4" fill-opacity="0.30"/><rect x="1129" y="217" width="8" height="12" fill="#5eead4" fill-opacity="0.30"/><rect x="1107" y="247" width="8" height="12" fill="#5eead4" fill-opacity="0.30"/><rect x="1129" y="247" width="8" height="12" fill="#5eead4" fill-opacity="0.30"/><rect x="1107" y="277" width="8" height="12" fill="#5eead4" fill-opacity="0.30"/><rect x="1129" y="277" width="8" height="12" fill="#5eead4" fill-opacity="0.30"/><rect x="1107" y="307" width="8" height="12" fill="#5eead4" fill-opacity="0.30"/><rect x="1129" y="307" width="8" height="12" fill="#5eead4" fill-opacity="0.30"/><rect x="1107" y="337" width="8" height="12" fill="#5eead4" fill-opacity="0.30"/><rect x="1129" y="337" width="8" height="12" fill="#5eead4" fill-opacity="0.30"/><rect x="1169" y="73" width="72" height="287" rx="3" fill="#5eead4" fill-opacity="0.38"/><rect x="1179" y="89" width="8" height="12" fill="#5eead4" fill-opacity="0.30"/><rect x="1201" y="89" width="8" height="12" fill="#5eead4" fill-opacity="0.30"/><rect x="1223" y="89" width="8" height="12" fill="#5eead4" fill-opacity="0.30"/><rect x="1179" y="119" width="8" height="12" fill="#5eead4" fill-opacity="0.30"/><rect x="1201" y="119" width="8" height="12" fill="#5eead4" fill-opacity="0.30"/><rect x="1223" y="119" width="8" height="12" fill="#5eead4" fill-opacity="0.30"/><rect x="1179" y="149" width="8" height="12" fill="#5eead4" fill-opacity="0.30"/><rect x="1201" y="149" width="8" height="12" fill="#5eead4" fill-opacity="0.30"/><rect x="1223" y="149" width="8" height="12" fill="#5eead4" fill-opacity="0.30"/><rect x="1179" y="179" width="8" height="12" fill="#5eead4" fill-opacity="0.30"/><rect x="1201" y="179" width="8" height="12" fill="#5eead4" fill-opacity="0.30"/><rect x="1223" y="179" width="8" height="12" fill="#5eead4" fill-opacity="0.30"/><rect x="1179" y="209" width="8" height="12" fill="#5eead4" fill-opacity="0.30"/><rect x="1201" y="209" width="8" height="12" fill="#5eead4" fill-opacity="0.30"/><rect x="1223" y="209" width="8" height="12" fill="#5eead4" fill-opacity="0.30"/><rect x="1179" y="239" width="8" height="12" fill="#5eead4" fill-opacity="0.30"/><rect x="1201" y="239" width="8" height="12" fill="#5eead4" fill-opacity="0.30"/><rect x="1223" y="239" width="8" height="12" fill="#5eead4" fill-opacity="0.30"/><rect x="1179" y="269" width="8" height="12" fill="#5eead4" fill-opacity="0.30"/><rect x="1201" y="269" width="8" height="12" fill="#5eead4" fill-opacity="0.30"/><rect x="1223" y="269" width="8" height="12" fill="#5eead4" fill-opacity="0.30"/><rect x="1179" y="299" width="8" height="12" fill="#5eead4" fill-opacity="0.30"/><rect x="1201" y="299" width="8" height="12" fill="#5eead4" fill-opacity="0.30"/><rect x="1223" y="299" width="8" height="12" fill="#5eead4" fill-opacity="0.30"/><rect x="1179" y="329" width="8" height="12" fill="#5eead4" fill-opacity="0.30"/><rect x="1201" y="329" width="8" height="12" fill="#5eead4" fill-opacity="0.30"/><rect x="1223" y="329" width="8" height="12" fill="#5eead4" fill-opacity="0.30"/><rect x="1257" y="174" width="69" height="186" rx="3" fill="#5eead4" fill-opacity="0.24"/><rect x="1267" y="190" width="8" height="12" fill="#5eead4" fill-opacity="0.30"/><rect x="1289" y="190" width="8" height="12" fill="#5eead4" fill-opacity="0.30"/><rect x="1311" y="190" width="8" height="12" fill="#5eead4" fill-opacity="0.30"/><rect x="1267" y="220" width="8" height="12" fill="#5eead4" fill-opacity="0.30"/><rect x="1289" y="220" width="8" height="12" fill="#5eead4" fill-opacity="0.30"/><rect x="1311" y="220" width="8" height="12" fill="#5eead4" fill-opacity="0.30"/><rect x="1267" y="250" width="8" height="12" fill="#5eead4" fill-opacity="0.30"/><rect x="1289" y="250" width="8" height="12" fill="#5eead4" fill-opacity="0.30"/><rect x="1311" y="250" width="8" height="12" fill="#5eead4" fill-opacity="0.30"/><rect x="1267" y="280" width="8" height="12" fill="#5eead4" fill-opacity="0.30"/><rect x="1289" y="280" width="8" height="12" fill="#5eead4" fill-opacity="0.30"/><rect x="1311" y="280" width="8" height="12" fill="#5eead4" fill-opacity="0.30"/><rect x="1267" y="310" width="8" height="12" fill="#5eead4" fill-opacity="0.30"/><rect x="1289" y="310" width="8" height="12" fill="#5eead4" fill-opacity="0.30"/><rect x="1311" y="310" width="8" height="12" fill="#5eead4" fill-opacity="0.30"/><rect x="1267" y="340" width="8" height="12" fill="#5eead4" fill-opacity="0.30"/><rect x="1289" y="340" width="8" height="12" fill="#5eead4" fill-opacity="0.30"/><rect x="1311" y="340" width="8" height="12" fill="#5eead4" fill-opacity="0.30"/><rect x="1342" y="156" width="101" height="204" rx="3" fill="#5eead4" fill-opacity="0.24"/><rect x="1352" y="172" width="8" height="12" fill="#5eead4" fill-opacity="0.30"/><rect x="1374" y="172" width="8" height="12" fill="#5eead4" fill-opacity="0.30"/><rect x="1396" y="172" width="8" height="12" fill="#5eead4" fill-opacity="0.30"/><rect x="1418" y="172" width="8" height="12" fill="#5eead4" fill-opacity="0.30"/><rect x="1352" y="202" width="8" height="12" fill="#5eead4" fill-opacity="0.30"/><rect x="1374" y="202" width="8" height="12" fill="#5eead4" fill-opacity="0.30"/><rect x="1396" y="202" width="8" height="12" fill="#5eead4" fill-opacity="0.30"/><rect x="1418" y="202" width="8" height="12" fill="#5eead4" fill-opacity="0.30"/><rect x="1352" y="232" width="8" height="12" fill="#5eead4" fill-opacity="0.30"/><rect x="1374" y="232" width="8" height="12" fill="#5eead4" fill-opacity="0.30"/><rect x="1396" y="232" width="8" height="12" fill="#5eead4" fill-opacity="0.30"/><rect x="1418" y="232" width="8" height="12" fill="#5eead4" fill-opacity="0.30"/><rect x="1352" y="262" width="8" height="12" fill="#5eead4" fill-opacity="0.30"/><rect x="1374" y="262" width="8" height="12" fill="#5eead4" fill-opacity="0.30"/><rect x="1396" y="262" width="8" height="12" fill="#5eead4" fill-opacity="0.30"/><rect x="1418" y="262" width="8" height="12" fill="#5eead4" fill-opacity="0.30"/><rect x="1352" y="292" width="8" height="12" fill="#5eead4" fill-opacity="0.30"/><rect x="1374" y="292" width="8" height="12" fill="#5eead4" fill-opacity="0.30"/><rect x="1396" y="292" width="8" height="12" fill="#5eead4" fill-opacity="0.30"/><rect x="1418" y="292" width="8" height="12" fill="#5eead4" fill-opacity="0.30"/><rect x="1352" y="322" width="8" height="12" fill="#5eead4" fill-opacity="0.30"/><rect x="1374" y="322" width="8" height="12" fill="#5eead4" fill-opacity="0.30"/><rect x="1396" y="322" width="8" height="12" fill="#5eead4" fill-opacity="0.30"/><rect x="1418" y="322" width="8" height="12" fill="#5eead4" fill-opacity="0.30"/><rect x="1459" y="247" width="58" height="113" rx="3" fill="#5eead4" fill-opacity="0.38"/><rect x="1469" y="263" width="8" height="12" fill="#5eead4" fill-opacity="0.30"/><rect x="1491" y="263" width="8" height="12" fill="#5eead4" fill-opacity="0.30"/><rect x="1469" y="293" width="8" height="12" fill="#5eead4" fill-opacity="0.30"/><rect x="1491" y="293" width="8" height="12" fill="#5eead4" fill-opacity="0.30"/><rect x="1469" y="323" width="8" height="12" fill="#5eead4" fill-opacity="0.30"/><rect x="1491" y="323" width="8" height="12" fill="#5eead4" fill-opacity="0.30"/><rect x="1533" y="145" width="54" height="215" rx="3" fill="#5eead4" fill-opacity="0.31"/><rect x="1543" y="161" width="8" height="12" fill="#5eead4" fill-opacity="0.30"/><rect x="1565" y="161" width="8" height="12" fill="#5eead4" fill-opacity="0.30"/><rect x="1543" y="191" width="8" height="12" fill="#5eead4" fill-opacity="0.30"/><rect x="1565" y="191" width="8" height="12" fill="#5eead4" fill-opacity="0.30"/><rect x="1543" y="221" width="8" height="12" fill="#5eead4" fill-opacity="0.30"/><rect x="1565" y="221" width="8" height="12" fill="#5eead4" fill-opacity="0.30"/><rect x="1543" y="251" width="8" height="12" fill="#5eead4" fill-opacity="0.30"/><rect x="1565" y="251" width="8" height="12" fill="#5eead4" fill-opacity="0.30"/><rect x="1543" y="281" width="8" height="12" fill="#5eead4" fill-opacity="0.30"/><rect x="1565" y="281" width="8" height="12" fill="#5eead4" fill-opacity="0.30"/><rect x="1543" y="311" width="8" height="12" fill="#5eead4" fill-opacity="0.30"/><rect x="1565" y="311" width="8" height="12" fill="#5eead4" fill-opacity="0.30"/><rect x="1543" y="341" width="8" height="12" fill="#5eead4" fill-opacity="0.30"/><rect x="1565" y="341" width="8" height="12" fill="#5eead4" fill-opacity="0.30"/><rect x="0" y="360" width="1600" height="3" fill="#5eead4" fill-opacity=".55"/></svg>