<svg xmlns="http://www.w3.org/2000/svg" width="1600" height="420" viewBox="0 0 1600 420"><defs><linearGradient id="g" x1="0" y1="0" x2="1" y2="1"><stop offset="0" stop-color="#2e2410"/><stop offset="1" stop-color="#6b5320"/></linearGradient><radialGradient id="glow" cx=".5" cy=".5" r=".5"><stop offset="0" stop-color="#fde68a" stop-opacity=".16"/><stop offset="1" stop-color="#fde68a" stop-opacity="0"/></radialGradient></defs><rect width="1600" height="420" fill="url(#g)"/><circle cx="345" cy="15" r="1.8" fill="#fde68a" fill-opacity="0.17"/><circle cx="387" cy="76" r="1.8" fill="#fde68a" fill-opacity="0.13"/><circle cx="102" cy="295" r="3.2" fill="#fde68a" fill-opacity="0.09"/><circle cx="770" cy="350" r="1.2" fill="#fde68a" fill-opacity="0.21"/><circle cx="1116" cy="89" r="2.5" fill="#fde68a" fill-opacity="0.15"/><circle cx="721" cy="279" r="3.2" fill="#fde68a" fill-opacity="0.23"/><circle cx="1337" cy="118" r="1.8" fill="#fde68a" fill-opacity="0.12"/><circle cx="820" cy="407" r="3.2" fill="#fde68a" fill-opacity="0.08"/><circle cx="694" cy="347" r="3.2" fill="#fde68a" fill-opacity="0.27"/><circle cx="1509" cy="144" r="3.2" fill="#fde68a" fill-opacity="0.18"/><circle cx="1059" cy="326" r="1.8" fill="#fde68a" fill-opacity="0.21"/><circle cx="279" cy="192" r="1.8" fill="#fde68a" fill-opacity="0.08"/><circle cx="126" cy="368" r="1.2" fill="#fde68a" fill-opacity="0.07"/><circle cx="200" cy="194" r="3.2" fill="#fde68a" fill-opacity="0.15"/><circle cx="577" cy="196" r="1.2" fill="#fde68a" fill-opacity="0.10"/><circle cx="862" cy="273" r="3.2" fill="#fde68a" fill-opacity="0.08"/><circle cx="1016" cy="50" r="1.2" fill="#fde68a" fill-opacity="0.17"/><circle cx="919" cy="90" r="3.2" fill="#fde68a" fill-opacity="0.16"/><circle cx="344" cy="400" r="1.2" fill="#fde68a" fill-opacity="0.12"/><circle cx="1590" cy="297" r="1.8" fill="#fde68a" fill-opacity="0.28"/><circle cx="901" cy="327" r="3.2" fill="#fde68a" fill-opacity="0.08"/><circle cx="978" cy="8" r="1.8" fill="#fde68a" fill-opacity="0.17"/><circle cx="691" cy="413" r="3.2" fill="#fde68a" fill-opacity="0.09"/><circle cx="618" cy="166" r="3.2" fill="#fde68a" fill-opacity="0.22"/><circle cx="684" cy="118" r="3.2" fill="#fde68a" fill-opacity="0.25"/><circle cx="1376" cy="138" r="2.5" fill="#fde68a" fill-opacity="0.13"/><circle cx="1412" cy="159" r="1.2" fill="#fde68a" fill-opacity="0.08"/><circle cx="99" cy="227" r="3.2" fill="#fde68a" fill-opacity="0.08"/><circle cx="898" cy="61" r="1.2" fill="#fde68a" fill-opacity="0.13"/><circle cx="86" cy="333" r="1.2" fill="#fde68a" fill-opacity="0.23"/><circle cx="223" cy="145" r="1.2" fill="#fde68a" fill-opacity="0.10"/><circle cx="556" cy="322" r="2.5" fill="#fde68a" fill-opacity="0.17"/><circle cx="1247" cy="345" r="2.5" fill="#fde68a" fill-opacity="0.24"/><circle cx="177" cy="368" r="2.5" fill="#fde68a" fill-opacity="0.27"/><circle cx="630" cy="397" r="2.5" fill="#fde68a" fill-opacity="0.17"/><circle cx="38" cy="245" r="1.8" fill="#fde68a" fill-opacity="0.13"/><circle cx="510" cy="210" r="1.8" fill="#fde68a" fill-opacity="0.20"/><circle cx="140" cy="41" r="1.8" fill="#fde68a" fill-opacity="0.06"/><circle cx="978" cy="375" r="2.5" fill="#fde68a" fill-opacity="0.19"/><circle cx="965" cy="233" r="2.5" fill="#fde68a" fill-opacity="0.21"/><circle cx="1050" cy="364" r="3.2" fill="#fde68a" fill-opacity="0.26"/><circle cx="328" cy="213" r="2.5" fill="#fde68a" fill-opacity="0.16"/><circle cx="923" cy="368" r="3.2" fill="#fde68a" fill-opacity="0.11"/><circle cx="1150" cy="409" r="2.5" fill="#fde68a" fill-opacity="0.18"/><circle cx="732" cy="348" r="1.2" fill="#fde68a" fill-opacity="0.28"/><circle cx="973" cy="218" r="3.2" fill="#fde68a" fill-opacity="0.08"/><circle cx="1215" cy="298" r="1.2" fill="#fde68a" fill-opacity="0.09"/><circle cx="762" cy="372" r="2.5" fill="#fde68a" fill-opacity="0.26"/><circle cx="903" cy="96" r="1.2" fill="#fde68a" fill-opacity="0.21"/><circle cx="399" cy="258" r="1.2" fill="#fde68a" fill-opacity="0.07"/><circle cx="497" cy="175" r="3.2" fill="#fde68a" fill-opacity="0.13"/><circle cx="737" cy="100" r="3.2" fill="#fde68a" fill-opacity="0.06"/><circle cx="680" cy="322" r="1.2" fill="#fde68a" fill-opacity="0.25"/><circle cx="1059" cy="162" r="3.2" fill="#fde68a" fill-opacity="0.27"/><circle cx="314" cy="183" r="1.8" fill="#fde68a" fill-opacity="0.07"/><circle cx="1086" cy="190" r="1.2" fill="#fde68a" fill-opacity="0.25"/><circle cx="279" cy="163" r="1.2" fill="#fde68a" fill-opacity="0.16"/><circle cx="1022" cy="401" r="1.8" fill="#fde68a" fill-opacity="0.13"/><circle cx="345" cy="148" r="3.2" fill="#fde68a" fill-opacity="0.19"/><circle cx="1062" cy="206" r="1.8" fill="#fde68a" fill-opacity="0.19"/><circle cx="412" cy="220" r="1.8" fill="#fde68a" fill-opacity="0.12"/><circle cx="178" cy="282" r="2.5" fill="#fde68a" fill-opacity="0.15"/><circle cx="151" cy="187" r="3.2" fill="#fde68a" fill-opacity="0.12"/><circle cx="1408" cy="55" r="3.2" fill="#fde68a" fill-opacity="0.08"/><circle cx="399" cy="302" r="1.2" fill="#fde68a" fill-opacity="0.18"/><circle cx="704" cy="150" r="3.2" fill="#fde68a" fill-opacity="0.22"/><circle cx="1349" cy="208" r="1.8" fill="#fde68a" fill-opacity="0.17"/><circle cx="361" cy="413" r="1.2" fill="#fde68a" fill-opacity="0.26"/><circle cx="47" cy="392" r="3.2" fill="#fde68a" fill-opacity="0.27"/><circle cx="1243" cy="396" r="3.2" fill="#fde68a" fill-opacity="0.25"/><circle cx="1120" cy="295" r="3.2" fill="#fde68a" fill-opacity="0.15"/><circle cx="1308" cy="278" r="1.8" fill="#fde68a" fill-opacity="0.23"/><circle cx="663" cy="327" r="1.2" fill="#fde68a" fill-opacity="0.15"/><circle cx="885" cy="84" r="3.2" fill="#fde68a" fill-opacity="0.18"/><rect x="18" y="18" width="1564" height="384" rx="6" fill="none" stroke="#fde68a" stroke-opacity=".32" stroke-width="1.6"/><rect x="28" y="28" width="1544" height="364" rx="4" fill="none" stroke="#fde68a" stroke-opacity=".16" stroke-width="1"/><ellipse cx="800" cy="210" rx="420" ry="190" fill="url(#glow)"/><g transform="translate(655 70) scale(1.45)"><path d="M20 150 Q60 132 100 150 Q140 132 180 150 V186 Q140 168 100 186 Q60 168 20 186 Z" fill="none" stroke="#fde68a" stroke-width="4" stroke-linecap="round" stroke-linejoin="round"/><path d="M100 150 V186" fill="none" stroke="#fde68a" stroke-width="3" stroke-linecap="round" stroke-linejoin="round"/><path d="M36 162 Q60 152 86 162 M114 162 Q140 152 164 162" fill="none" stroke="#fde68a" stroke-width="1.8" stroke-linecap="round" stroke-linejoin="round" stroke-opacity=".6"/><path d="M150 20 Q110 40 104 120 Q140 90 150 20 Z" fill="none" stroke="#fde68a" stroke-width="3.5" stroke-linecap="round" stroke-linejoin="round"/><path d="M104 120 L96 140 M146 34 Q124 60 110 104" fill="none" stroke="#fde68a" stroke-width="2.5" stroke-linecap="round" stroke-linejoin="round"/></g><path d="M570 210 H310" stroke="#fde68a" stroke-opacity=".45" stroke-width="1.6"/><circle cx="298" cy="210" r="4" fill="#fde68a" fill-opacity=".6"/><path d="M1030 210 H1290" stroke="#fde68a" stroke-opacity=".45" stroke-width="1.6"/><circle cx="1302" cy="210" r="4" fill="#fde68a" fill-opacity=".6"/><text x="800" y="394" text-anchor="middle" font-family="Georgia, 'Times New Roman', serif" font-size="22" letter-spacing="8" fill="#fde68a" fill-opacity=".8">COUNTY REGISTER OFFICE</text></svg>