<svg xmlns="http://www.w3.org/2000/svg" width="1600" height="420" viewBox="0 0 1600 420"><defs><linearGradient id="g" x1="0" y1="0" x2="1" y2="1"><stop offset="0" stop-color="#2a2008"/><stop offset="1" stop-color="#5c4613"/></linearGradient><radialGradient id="glow" cx=".5" cy=".5" r=".5"><stop offset="0" stop-color="#fcd34d" stop-opacity=".16"/><stop offset="1" stop-color="#fcd34d" stop-opacity="0"/></radialGradient></defs><rect width="1600" height="420" fill="url(#g)"/><circle cx="559" cy="337" r="1.2" fill="#fcd34d" fill-opacity="0.15"/><circle cx="1410" cy="34" r="3.2" fill="#fcd34d" fill-opacity="0.16"/><circle cx="1454" cy="267" r="2.5" fill="#fcd34d" fill-opacity="0.14"/><circle cx="1133" cy="339" r="1.8" fill="#fcd34d" fill-opacity="0.21"/><circle cx="621" cy="225" r="2.5" fill="#fcd34d" fill-opacity="0.17"/><circle cx="1404" cy="264" r="1.2" fill="#fcd34d" fill-opacity="0.25"/><circle cx="81" cy="304" r="1.8" fill="#fcd34d" fill-opacity="0.12"/><circle cx="841" cy="150" r="1.8" fill="#fcd34d" fill-opacity="0.11"/><circle cx="776" cy="248" r="2.5" fill="#fcd34d" fill-opacity="0.13"/><circle cx="23" cy="249" r="1.2" fill="#fcd34d" fill-opacity="0.27"/><circle cx="169" cy="132" r="1.8" fill="#fcd34d" fill-opacity="0.08"/><circle cx="772" cy="380" r="1.2" fill="#fcd34d" fill-opacity="0.22"/><circle cx="720" cy="129" r="1.8" fill="#fcd34d" fill-opacity="0.10"/><circle cx="648" cy="111" r="1.2" fill="#fcd34d" fill-opacity="0.12"/><circle cx="645" cy="3" r="3.2" fill="#fcd34d" fill-opacity="0.26"/><circle cx="1469" cy="125" r="1.8" fill="#fcd34d" fill-opacity="0.15"/><circle cx="49" cy="208" r="3.2" fill="#fcd34d" fill-opacity="0.06"/><circle cx="211" cy="324" r="3.2" fill="#fcd34d" fill-opacity="0.14"/><circle cx="119" cy="214" r="3.2" fill="#fcd34d" fill-opacity="0.14"/><circle cx="1469" cy="14" r="3.2" fill="#fcd34d" fill-opacity="0.17"/><circle cx="1536" cy="224" r="2.5" fill="#fcd34d" fill-opacity="0.27"/><circle cx="815" cy="53" r="1.2" fill="#fcd34d" fill-opacity="0.26"/><circle cx="1234" cy="167" r="1.8" fill="#fcd34d" fill-opacity="0.17"/><circle cx="915" cy="146" r="2.5" fill="#fcd34d" fill-opacity="0.20"/><circle cx="442" cy="100" r="3.2" fill="#fcd34d" fill-opacity="0.23"/><circle cx="608" cy="200" r="1.8" fill="#fcd34d" fill-opacity="0.15"/><circle cx="1020" cy="247" r="2.5" fill="#fcd34d" fill-opacity="0.24"/><circle cx="307" cy="218" r="1.2" fill="#fcd34d" fill-opacity="0.24"/><circle cx="1356" cy="278" r="1.8" fill="#fcd34d" fill-opacity="0.11"/><circle cx="959" cy="340" r="2.5" fill="#fcd34d" fill-opacity="0.23"/><circle cx="700" cy="203" r="2.5" fill="#fcd34d" fill-opacity="0.09"/><circle cx="415" cy="208" r="1.8" fill="#fcd34d" fill-opacity="0.24"/><circle cx="1091" cy="127" r="3.2" fill="#fcd34d" fill-opacity="0.11"/><circle cx="509" cy="182" r="2.5" fill="#fcd34d" fill-opacity="0.23"/><circle cx="129" cy="374" r="1.2" fill="#fcd34d" fill-opacity="0.23"/><circle cx="1550" cy="180" r="3.2" fill="#fcd34d" fill-opacity="0.07"/><circle cx="386" cy="82" r="3.2" fill="#fcd34d" fill-opacity="0.18"/><circle cx="1565" cy="259" r="2.5" fill="#fcd34d" fill-opacity="0.07"/><circle cx="524" cy="372" r="1.8" fill="#fcd34d" fill-opacity="0.27"/><circle cx="1430" cy="101" r="2.5" fill="#fcd34d" fill-opacity="0.14"/><circle cx="344" cy="68" r="1.2" fill="#fcd34d" fill-opacity="0.11"/><circle cx="1592" cy="270" r="1.2" fill="#fcd34d" fill-opacity="0.27"/><circle cx="528" cy="123" r="1.8" fill="#fcd34d" fill-opacity="0.15"/><circle cx="171" cy="74" r="3.2" fill="#fcd34d" fill-opacity="0.16"/><circle cx="926" cy="187" r="3.2" fill="#fcd34d" fill-opacity="0.13"/><circle cx="30" cy="413" r="1.8" fill="#fcd34d" fill-opacity="0.26"/><circle cx="1226" cy="380" r="1.8" fill="#fcd34d" fill-opacity="0.27"/><circle cx="1094" cy="144" r="2.5" fill="#fcd34d" fill-opacity="0.11"/><circle cx="1328" cy="44" r="3.2" fill="#fcd34d" fill-opacity="0.15"/><circle cx="1560" cy="184" r="2.5" fill="#fcd34d" fill-opacity="0.11"/><circle cx="1173" cy="217" r="1.8" fill="#fcd34d" fill-opacity="0.14"/><circle cx="153" cy="395" r="1.8" fill="#fcd34d" fill-opacity="0.19"/><circle cx="1373" cy="306" r="3.2" fill="#fcd34d" fill-opacity="0.21"/><circle cx="1098" cy="385" r="1.2" fill="#fcd34d" fill-opacity="0.28"/><circle cx="1110" cy="338" r="1.8" fill="#fcd34d" fill-opacity="0.21"/><circle cx="1037" cy="180" r="1.2" fill="#fcd34d" fill-opacity="0.19"/><circle cx="847" cy="207" r="3.2" fill="#fcd34d" fill-opacity="0.08"/><circle cx="1324" cy="16" r="3.2" fill="#fcd34d" fill-opacity="0.08"/><circle cx="20" cy="71" r="3.2" fill="#fcd34d" fill-opacity="0.15"/><circle cx="1487" cy="152" r="2.5" fill="#fcd34d" fill-opacity="0.19"/><circle cx="113" cy="316" r="1.2" fill="#fcd34d" fill-opacity="0.20"/><circle cx="896" cy="144" r="1.2" fill="#fcd34d" fill-opacity="0.09"/><circle cx="91" cy="333" r="1.2" fill="#fcd34d" fill-opacity="0.17"/><circle cx="1063" cy="202" r="1.8" fill="#fcd34d" fill-opacity="0.10"/><circle cx="872" cy="149" r="3.2" fill="#fcd34d" fill-opacity="0.08"/><circle cx="1174" cy="310" r="2.5" fill="#fcd34d" fill-opacity="0.24"/><circle cx="433" cy="105" r="2.5" fill="#fcd34d" fill-opacity="0.15"/><circle cx="1025" cy="346" r="1.8" fill="#fcd34d" fill-opacity="0.26"/><circle cx="1239" cy="58" r="2.5" fill="#fcd34d" fill-opacity="0.20"/><circle cx="254" cy="85" r="3.2" fill="#fcd34d" fill-opacity="0.18"/><circle cx="1512" cy="68" r="2.5" fill="#fcd34d" fill-opacity="0.12"/><circle cx="37" cy="26" r="3.2" fill="#fcd34d" fill-opacity="0.07"/><circle cx="661" cy="36" r="3.2" fill="#fcd34d" fill-opacity="0.21"/><circle cx="162" cy="77" r="1.2" fill="#fcd34d" fill-opacity="0.09"/><rect x="18" y="18" width="1564" height="384" rx="6" fill="none" stroke="#fcd34d" stroke-opacity=".32" stroke-width="1.6"/><rect x="28" y="28" width="1544" height="364" rx="4" fill="none" stroke="#fcd34d" stroke-opacity=".16" stroke-width="1"/><ellipse cx="800" cy="210" rx="420" ry="190" fill="url(#glow)"/><g transform="translate(655 70) scale(1.45)"><circle cx="50" cy="66" r="22" fill="none" stroke="#fcd34d" stroke-width="4" stroke-linecap="round" stroke-linejoin="round"/><circle cx="83" cy="66" r="5" fill="none" stroke="#fcd34d" stroke-width="2.5" stroke-linecap="round" stroke-linejoin="round"/><circle cx="73" cy="89" r="5" fill="none" stroke="#fcd34d" stroke-width="2.5" stroke-linecap="round" stroke-linejoin="round"/><circle cx="50" cy="99" r="5" fill="none" stroke="#fcd34d" stroke-width="2.5" stroke-linecap="round" stroke-linejoin="round"/><circle cx="27" cy="89" r="5" fill="none" stroke="#fcd34d" stroke-width="2.5" stroke-linecap="round" stroke-linejoin="round"/><circle cx="17" cy="66" r="5" fill="none" stroke="#fcd34d" stroke-width="2.5" stroke-linecap="round" stroke-linejoin="round"/><circle cx="27" cy="43" r="5" fill="none" stroke="#fcd34d" stroke-width="2.5" stroke-linecap="round" stroke-linejoin="round"/><circle cx="50" cy="33" r="5" fill="none" stroke="#fcd34d" stroke-width="2.5" stroke-linecap="round" stroke-linejoin="round"/><circle cx="73" cy="43" r="5" fill="none" stroke="#fcd34d" stroke-width="2.5" stroke-linecap="round" stroke-linejoin="round"/><circle cx="50" cy="66" r="5" fill="#fcd34d" fill-opacity=".8"/><circle cx="150" cy="66" r="22" fill="none" stroke="#fcd34d" stroke-width="4" stroke-linecap="round" stroke-linejoin="round"/><circle cx="183" cy="66" r="5" fill="none" stroke="#fcd34d" stroke-width="2.5" stroke-linecap="round" stroke-linejoin="round"/><circle cx="173" cy="89" r="5" fill="none" stroke="#fcd34d" stroke-width="2.5" stroke-linecap="round" stroke-linejoin="round"/><circle cx="150" cy="99" r="5" fill="none" stroke="#fcd34d" stroke-width="2.5" stroke-linecap="round" stroke-linejoin="round"/><circle cx="127" cy="89" r="5" fill="none" stroke="#fcd34d" stroke-width="2.5" stroke-linecap="round" stroke-linejoin="round"/><circle cx="117" cy="66" r="5" fill="none" stroke="#fcd34d" stroke-width="2.5" stroke-linecap="round" stroke-linejoin="round"/><circle cx="127" cy="43" r="5" fill="none" stroke="#fcd34d" stroke-width="2.5" stroke-linecap="round" stroke-linejoin="round"/><circle cx="150" cy="33" r="5" fill="none" stroke="#fcd34d" stroke-width="2.5" stroke-linecap="round" stroke-linejoin="round"/><circle cx="173" cy="43" r="5" fill="none" stroke="#fcd34d" stroke-width="2.5" stroke-linecap="round" stroke-linejoin="round"/><circle cx="150" cy="66" r="5" fill="#fcd34d" fill-opacity=".8"/><circle cx="100" cy="150" r="22" fill="none" stroke="#fcd34d" stroke-width="4" stroke-linecap="round" stroke-linejoin="round"/><circle cx="133" cy="150" r="5" fill="none" stroke="#fcd34d" stroke-width="2.5" stroke-linecap="round" stroke-linejoin="round"/><circle cx="123" cy="173" r="5" fill="none" stroke="#fcd34d" stroke-width="2.5" stroke-linecap="round" stroke-linejoin="round"/><circle cx="100" cy="183" r="5" fill="none" stroke="#fcd34d" stroke-width="2.5" stroke-linecap="round" stroke-linejoin="round"/><circle cx="77" cy="173" r="5" fill="none" stroke="#fcd34d" stroke-width="2.5" stroke-linecap="round" stroke-linejoin="round"/><circle cx="67" cy="150" r="5" fill="none" stroke="#fcd34d" stroke-width="2.5" stroke-linecap="round" stroke-linejoin="round"/><circle cx="77" cy="127" r="5" fill="none" stroke="#fcd34d" stroke-width="2.5" stroke-linecap="round" stroke-linejoin="round"/><circle cx="100" cy="117" r="5" fill="none" stroke="#fcd34d" stroke-width="2.5" stroke-linecap="round" stroke-linejoin="round"/><circle cx="123" cy="127" r="5" fill="none" stroke="#fcd34d" stroke-width="2.5" stroke-linecap="round" stroke-linejoin="round"/><circle cx="100" cy="150" r="5" fill="#fcd34d" fill-opacity=".8"/></g><path d="M570 210 H310" stroke="#fcd34d" stroke-opacity=".45" stroke-width="1.6"/><circle cx="298" cy="210" r="4" fill="#fcd34d" fill-opacity=".6"/><path d="M1030 210 H1290" stroke="#fcd34d" stroke-opacity=".45" stroke-width="1.6"/><circle cx="1302" cy="210" r="4" fill="#fcd34d" fill-opacity=".6"/><text x="800" y="394" text-anchor="middle" font-family="Georgia, 'Times New Roman', serif" font-size="22" letter-spacing="8" fill="#fcd34d" fill-opacity=".8">SWERE</text></svg>